<svg xmlns="http://www.w3.org/2000/svg" xmlns:xlink="http://www.w3.org/1999/xlink" width="620.128" height="626.016" viewBox="0 0 620.128 626.016">
  <defs>
    <linearGradient id="linear-gradient" x1="1.255" y1="0.523" x2="-0.085" y2="0.113" gradientUnits="objectBoundingBox">
      <stop offset="0" stop-color="#074fc8"/>
      <stop offset="1" stop-color="#042864"/>
    </linearGradient>
    <linearGradient id="linear-gradient-2" x1="0.388" y1="0.52" x2="0.047" y2="0.043" gradientUnits="objectBoundingBox">
      <stop offset="0" stop-color="#162447"/>
      <stop offset="1" stop-color="#0061ff"/>
    </linearGradient>
    <linearGradient id="linear-gradient-3" x1="-0.027" y1="0.937" x2="1.127" y2="0.668" xlink:href="#linear-gradient-2"/>
    <filter id="Path_23693" x="82.473" y="29.105" width="181.635" height="181.635" filterUnits="userSpaceOnUse">
      <feOffset dy="10" input="SourceAlpha"/>
      <feGaussianBlur stdDeviation="17.5" result="blur"/>
      <feFlood flood-color="#002772" flood-opacity="0.098"/>
      <feComposite operator="in" in2="blur"/>
      <feComposite in="SourceGraphic"/>
    </filter>
    <filter id="Path_23693-2" x="0" y="239.106" width="170.604" height="170.604" filterUnits="userSpaceOnUse">
      <feOffset dy="10" input="SourceAlpha"/>
      <feGaussianBlur stdDeviation="17.5" result="blur-2"/>
      <feFlood flood-color="#002772" flood-opacity="0.098"/>
      <feComposite operator="in" in2="blur-2"/>
      <feComposite in="SourceGraphic"/>
    </filter>
    <filter id="Path_23693-3" x="316.588" y="430.965" width="195.119" height="195.051" filterUnits="userSpaceOnUse">
      <feOffset dy="10" input="SourceAlpha"/>
      <feGaussianBlur stdDeviation="17.5" result="blur-3"/>
      <feFlood flood-color="#002772" flood-opacity="0.098"/>
      <feComposite operator="in" in2="blur-3"/>
      <feComposite in="SourceGraphic"/>
    </filter>
    <filter id="Ellipse_9428" x="461.92" y="119.671" width="158.208" height="158.208" filterUnits="userSpaceOnUse">
      <feOffset dy="10" input="SourceAlpha"/>
      <feGaussianBlur stdDeviation="17.5" result="blur-4"/>
      <feFlood flood-color="#002772" flood-opacity="0.098"/>
      <feComposite operator="in" in2="blur-4"/>
      <feComposite in="SourceGraphic"/>
    </filter>
    <linearGradient id="linear-gradient-4" y1="0.5" x2="1" y2="0.5" gradientUnits="objectBoundingBox">
      <stop offset="0" stop-color="#69aeeb"/>
      <stop offset="1" stop-color="#69aeeb"/>
    </linearGradient>
    <filter id="Path_23693-4" x="335.94" y="0" width="182.385" height="182.385" filterUnits="userSpaceOnUse">
      <feOffset dy="10" input="SourceAlpha"/>
      <feGaussianBlur stdDeviation="17.5" result="blur-5"/>
      <feFlood flood-color="#002772" flood-opacity="0.098"/>
      <feComposite operator="in" in2="blur-5"/>
      <feComposite in="SourceGraphic"/>
    </filter>
    <filter id="Ellipse_9517" x="53.474" y="361.105" width="210" height="210" filterUnits="userSpaceOnUse">
      <feOffset dy="10" input="SourceAlpha"/>
      <feGaussianBlur stdDeviation="17.5" result="blur-6"/>
      <feFlood flood-color="#002772" flood-opacity="0.098"/>
      <feComposite operator="in" in2="blur-6"/>
      <feComposite in="SourceGraphic"/>
    </filter>
  </defs>
  <g id="_2-maintained" data-name="2-maintained" transform="translate(29.974 16.605)">
    <rect id="image-area" width="577" height="562" fill="rgba(255,255,255,0)"/>
    <g id="seo-for-msps" transform="translate(21.274 32.746)">
      <g id="bg" transform="translate(32.849 4.845)">
        <g id="Group_19196" data-name="Group 19196" transform="translate(0 0)">
          <circle id="Ellipse_9451" data-name="Ellipse 9451" cx="241.766" cy="241.766" r="241.766" fill="url(#linear-gradient)"/>
          <path id="Ellipse_9451_-_Outline" data-name="Ellipse 9451 - Outline" d="M241.766-.5v1h-.238v-1Zm0,0c.666,0,1.342,0,2.008.008l-.008,1C243.1.5,242.43.5,241.766.5Zm-5.25.056.021,1c-.662.014-1.334.031-2,.051l-.029-1C235.177-.413,235.851-.43,236.516-.444ZM248.781-.4c.665.019,1.34.041,2,.065l-.037,1c-.662-.024-1.334-.046-2-.065ZM229.508-.2l.05,1c-.663.033-1.334.069-2,.108l-.058-1C228.168-.126,228.843-.162,229.508-.2ZM255.79-.1c.664.038,1.337.079,2,.122l-.065,1c-.661-.043-1.331-.084-1.992-.122ZM222.506.254l.078,1c-.661.052-1.33.107-1.99.165l-.087-1C221.17.362,221.843.307,222.506.254ZM262.787.4c.662.057,1.333.117,1.995.18l-.094,1c-.659-.062-1.327-.122-1.986-.179ZM215.521.905l.107.994c-.658.071-1.326.146-1.983.222l-.115-.993C214.19,1.051,214.86.976,215.521.905Zm54.245.2c.66.076,1.328.156,1.987.237l-.122.992c-.656-.081-1.322-.16-1.979-.236Zm-61.207.656.136.991c-.655.09-1.32.184-1.974.279l-.144-.99C207.234,1.942,207.9,1.847,208.559,1.757ZM276.72,2c.658.1,1.325.194,1.983.295l-.151.988c-.655-.1-1.319-.2-1.974-.294Zm-75.1.807.164.986c-.653.109-1.314.222-1.966.336l-.173-.985C200.305,3.033,200.969,2.919,201.625,2.81Zm82.022.3c.656.114,1.32.233,1.975.353l-.18.984c-.652-.119-1.314-.237-1.967-.351Zm-88.921.957.193.981c-.65.128-1.309.26-1.958.394l-.2-.98C193.41,4.326,194.072,4.193,194.725,4.064Zm95.815.348c.652.133,1.312.271,1.963.41l-.208.978c-.648-.138-1.305-.275-1.954-.408ZM187.862,5.518l.222.975c-.646.147-1.3.3-1.946.451l-.23-.973C186.556,5.818,187.214,5.666,187.862,5.518Zm109.529.4c.647.152,1.3.309,1.948.466l-.237.972c-.643-.157-1.3-.313-1.94-.464ZM181.045,7.172l.25.968c-.641.165-1.291.336-1.93.507l-.258-.966C179.749,7.51,180.4,7.339,181.045,7.172ZM304.2,7.62c.642.171,1.292.347,1.933.523l-.265.964c-.638-.175-1.285-.35-1.925-.521Zm-129.917,1.4.278.961c-.636.184-1.279.373-1.914.563l-.286-.958C172.994,9.4,173.641,9.209,174.279,9.024Zm136.668.5c.637.19,1.283.385,1.919.579l-.293.956c-.633-.194-1.276-.388-1.911-.577ZM167.571,11.072l.306.952c-.63.2-1.268.411-1.9.618l-.314-.95C166.3,11.485,166.938,11.276,167.571,11.072Zm150.069.546c.632.208,1.272.422,1.9.636l-.321.947c-.628-.213-1.265-.426-1.894-.633Zm-156.714,1.7.334.943c-.625.221-1.257.448-1.88.674l-.341-.94C159.664,13.765,160.3,13.537,160.926,13.315Zm163.344.6c.625.226,1.258.459,1.882.69l-.348.937c-.621-.231-1.251-.462-1.874-.687ZM154.347,15.752l.361.933c-.618.239-1.243.484-1.859.728l-.369-.93C153.1,16.238,153.727,15.992,154.347,15.752ZM330.83,16.4c.618.244,1.244.495,1.86.745l-.376.927c-.613-.249-1.237-.5-1.852-.741ZM147.843,18.379l.388.922c-.61.257-1.228.52-1.836.782l-.4-.918C146.61,18.9,147.23,18.637,147.843,18.379Zm189.471.691c.611.262,1.229.531,1.837.8l-.4.915c-.606-.266-1.222-.534-1.83-.8Zm-195.9,2.124.415.91c-.6.274-1.212.555-1.812.835l-.422-.906C140.2,21.752,140.814,21.47,141.419,21.194Zm202.3.738c.6.28,1.214.567,1.815.852l-.429.9c-.6-.284-1.207-.57-1.807-.849ZM135.079,24.2l.441.9c-.594.292-1.2.591-1.788.888l-.448-.894C133.878,24.788,134.482,24.488,135.079,24.2Zm214.956.785c.595.3,1.2.6,1.789.9l-.455.891c-.59-.3-1.189-.6-1.782-.9Zm-221.206,2.4.467.884c-.586.309-1.178.625-1.762.939l-.474-.88C127.646,28.007,128.241,27.69,128.829,27.379Zm227.433.831c.586.315,1.178.636,1.761.956l-.481.877c-.581-.318-1.171-.638-1.754-.952ZM122.674,30.744l.492.87c-.576.326-1.159.659-1.733.99l-.5-.866C121.509,31.405,122.1,31.071,122.674,30.744Zm239.719.875c.576.331,1.159.67,1.732,1.006l-.506.863c-.571-.335-1.152-.672-1.725-1ZM116.619,34.285l.517.856c-.566.342-1.14.692-1.7,1.039l-.524-.852C115.475,34.98,116.05,34.629,116.619,34.285Zm251.8.919c.567.348,1.14.7,1.7,1.056l-.531.848c-.561-.351-1.132-.705-1.7-1.052ZM110.669,38l.542.84c-.557.359-1.119.725-1.673,1.088l-.549-.836C109.545,38.728,110.111,38.36,110.669,38Zm263.674.962c.556.364,1.119.736,1.672,1.105l-.555.832c-.551-.367-1.111-.738-1.665-1.1ZM104.83,41.885l.566.824c-.546.375-1.1.757-1.641,1.137l-.573-.82C103.727,42.645,104.281,42.262,104.83,41.885ZM380.155,42.89c.545.38,1.1.768,1.639,1.153l-.579.816c-.54-.383-1.089-.77-1.632-1.148ZM99.1,45.938l.59.808c-.535.39-1.076.788-1.607,1.183l-.6-.8C98.024,46.73,98.567,46.33,99.1,45.938ZM385.85,46.984c.534.4,1.074.8,1.605,1.2l-.6.8c-.529-.4-1.066-.8-1.6-1.195ZM93.5,50.154l.612.79c-.523.406-1.052.819-1.572,1.229l-.619-.785C92.442,50.976,92.973,50.561,93.5,50.154Zm297.927,1.087c.523.411,1.051.83,1.57,1.246l-.625.781c-.517-.414-1.043-.831-1.564-1.24ZM88.017,54.53l.635.772c-.511.421-1.028.849-1.537,1.274l-.641-.767C86.984,55.382,87.5,54.952,88.017,54.53Zm308.858,1.127c.511.426,1.027.86,1.534,1.29l-.647.763c-.505-.428-1.019-.861-1.527-1.285ZM82.663,59.062l.657.754c-.5.435-1,.878-1.5,1.318l-.663-.748C81.655,59.944,82.162,59.5,82.663,59.062ZM402.2,60.227c.5.44,1,.889,1.5,1.334l-.669.744c-.492-.443-.994-.89-1.49-1.328ZM77.442,63.746l.678.735c-.486.449-.978.907-1.461,1.36l-.685-.729C76.46,64.657,76.954,64.2,77.442,63.746Zm329.941,1.2c.485.455.975.918,1.457,1.376l-.69.724c-.479-.457-.968-.918-1.451-1.371ZM72.358,68.578l.7.715c-.473.463-.951.935-1.421,1.4l-.705-.709C71.4,69.517,71.883,69.043,72.358,68.578Zm340.073,1.24c.472.468.949.945,1.417,1.418l-.71.7c-.466-.47-.941-.945-1.411-1.412ZM67.416,73.555l.72.694c-.46.477-.924.962-1.38,1.442L66.03,75C66.488,74.521,66.954,74.034,67.416,73.555Zm349.923,1.275c.458.482.921.972,1.375,1.458l-.73.683c-.452-.484-.913-.972-1.37-1.452ZM62.618,78.672l.739.673c-.446.49-.9.988-1.338,1.481l-.745-.667C61.718,79.664,62.17,79.164,62.618,78.672ZM422.1,79.982c.444.495.893,1,1.333,1.5l-.75.662c-.438-.5-.885-1-1.327-1.491ZM57.97,83.925l.758.652c-.432.5-.867,1.013-1.295,1.519l-.764-.646C57.1,84.942,57.536,84.429,57.97,83.925Zm368.739,1.344c.43.507.864,1.024,1.289,1.535l-.768.64c-.424-.509-.856-1.023-1.284-1.528ZM53.474,89.309l.777.63c-.417.514-.838,1.038-1.251,1.556l-.782-.623C52.633,90.352,53.056,89.826,53.474,89.309Zm377.69,1.376c.415.52.834,1.048,1.244,1.571l-.786.618c-.409-.521-.826-1.047-1.239-1.565ZM49.136,94.821l.795.607c-.4.526-.808,1.062-1.205,1.591l-.8-.6C48.325,95.887,48.732,95.35,49.136,94.821Zm386.327,1.408c.4.531.8,1.072,1.2,1.606l-.8.595c-.394-.532-.8-1.07-1.193-1.6Zm-390.5,4.227.812.584c-.387.537-.776,1.084-1.158,1.625l-.817-.577C44.179,101.545,44.57,101,44.959,100.456ZM439.6,101.893c.384.543.772,1.094,1.152,1.64l-.821.571c-.378-.543-.764-1.093-1.147-1.633ZM40.946,106.209l.828.56c-.371.549-.745,1.106-1.111,1.658l-.833-.553C40.2,107.32,40.573,106.759,40.946,106.209Zm402.625,1.466c.369.554.74,1.117,1.1,1.673l-.837.547c-.362-.554-.732-1.115-1.1-1.666Zm-406.47,4.4.844.536c-.355.559-.713,1.128-1.063,1.69l-.849-.529C36.385,113.207,36.744,112.636,37.1,112.075Zm410.272,1.495c.352.564.707,1.137,1.055,1.7l-.852.523c-.346-.565-.7-1.135-1.051-1.7ZM33.426,118.05l.859.511c-.339.569-.68,1.148-1.014,1.72l-.864-.5C32.744,119.2,33.086,118.622,33.426,118.05ZM451,119.572c.336.574.674,1.157,1,1.733l-.867.5c-.33-.574-.666-1.155-1-1.726ZM29.927,124.13l.874.486c-.322.578-.646,1.166-.963,1.747l-.878-.479C29.278,125.3,29.6,124.711,29.927,124.13Zm424.531,1.546c.319.583.64,1.176.954,1.762l-.881.473c-.313-.583-.633-1.174-.95-1.755ZM26.605,130.307l.888.461c-.305.588-.612,1.185-.912,1.775l-.891-.453C25.991,131.5,26.3,130.9,26.605,130.307Zm431.129,1.57c.3.593.606,1.195.9,1.79l-.895.447c-.3-.593-.6-1.192-.9-1.782Zm-434.27,4.7.9.435c-.288.6-.577,1.2-.86,1.8l-.9-.427C22.885,137.786,23.176,137.178,23.465,136.579Zm437.364,1.594c.285.6.571,1.212.851,1.815l-.907.421c-.279-.6-.564-1.209-.847-1.808ZM20.508,142.94l.913.408c-.271.6-.542,1.219-.808,1.826l-.916-.4C19.963,144.164,20.236,143.547,20.508,142.94Zm443.232,1.616c.267.609.535,1.227.8,1.838l-.919.394c-.261-.608-.528-1.224-.794-1.83Zm-446,4.829.924.382c-.253.612-.506,1.234-.754,1.848l-.928-.374C17.228,150.623,17.483,150,17.737,149.384Zm448.726,1.635c.249.616.5,1.242.743,1.861l-.93.367c-.243-.616-.492-1.239-.74-1.853ZM15.155,155.906l.935.354c-.235.619-.47,1.247-.7,1.868l-.938-.347C14.683,157.159,14.919,156.528,15.155,155.906ZM469,157.559c.231.624.463,1.257.689,1.882l-.94.34c-.225-.623-.456-1.254-.686-1.875ZM12.765,162.5l.945.327c-.217.626-.434,1.261-.645,1.889l-.948-.319C12.329,163.766,12.547,163.128,12.765,162.5Zm458.574,1.671c.213.63.426,1.271.634,1.9l-.95.312c-.207-.63-.419-1.267-.631-1.895Zm-460.771,4.99.954.3c-.2.632-.4,1.274-.59,1.908l-.957-.291C10.169,170.44,10.368,169.8,10.568,169.161Zm462.919,1.688c.194.636.389,1.282.578,1.919l-.959.284c-.188-.635-.382-1.278-.575-1.911ZM8.566,175.884l.962.271c-.18.638-.359,1.285-.534,1.924l-.965-.263C8.2,177.175,8.385,176.525,8.566,175.884Zm466.874,1.7c.176.641.351,1.291.521,1.933l-.967.256c-.169-.639-.344-1.287-.519-1.925ZM6.761,182.664l.97.243c-.161.642-.321,1.293-.477,1.936l-.972-.235C6.438,183.962,6.6,183.308,6.761,182.664Zm470.434,1.714c.157.646.313,1.3.465,1.949l-.974.228c-.151-.645-.307-1.3-.463-1.941ZM5.154,189.491l.977.215c-.142.646-.284,1.3-.42,1.95l-.978-.207C4.87,190.8,5.012,190.14,5.154,189.491Zm473.6,1.725c.138.651.275,1.311.408,1.963l-.98.2c-.132-.649-.269-1.307-.406-1.955Zm-475,5.146.983.186c-.123.651-.246,1.311-.364,1.963l-.984-.178C3.5,197.678,3.624,197.015,3.748,196.362ZM480.107,198.1c.119.655.237,1.32.351,1.976l-.985.171c-.113-.653-.231-1.315-.35-1.967ZM2.542,203.271l.987.158c-.1.654-.208,1.318-.307,1.974l-.989-.15C2.333,204.6,2.437,203.928,2.542,203.271Zm478.721,1.747c.1.657.2,1.324.293,1.982l-.99.142c-.094-.655-.192-1.32-.292-1.974Zm-479.727,5.2.992.129c-.085.657-.169,1.324-.249,1.982l-.993-.121C1.366,211.543,1.45,210.874,1.536,210.214Zm480.681,1.755c.081.659.16,1.328.236,1.988l-.994.114c-.075-.657-.154-1.323-.234-1.979ZM.732,217.183l.995.1c-.066.658-.131,1.326-.192,1.985l-1-.092C.6,218.515.665,217.844.732,217.183Zm482.239,1.757c.062.661.122,1.333.178,1.995l-1,.085c-.056-.659-.116-1.328-.177-1.987ZM.129,224.172l1,.072c-.047.659-.093,1.329-.135,1.989l-1-.063C.036,225.506.082,224.834.129,224.172Zm483.393,1.76c.043.664.083,1.337.121,2l-1,.056c-.037-.661-.078-1.332-.12-1.993Zm-483.8,5.241,1,.043c-.029.661-.055,1.332-.078,1.994l-1-.035C-.327,232.51-.3,231.836-.273,231.172Zm484.147,1.764c.024.665.045,1.34.064,2.005l-1,.028c-.018-.663-.04-1.335-.063-2ZM-.474,238.183l1,.014c-.01.662-.017,1.334-.021,2l-1-.006C-.491,239.522-.484,238.848-.474,238.183Zm484.5,1.767c0,.6.007,1.214.007,1.817v.192h-1v-.191c0-.6,0-1.209-.007-1.809ZM.524,245.191c.009.661.021,1.332.036,1.993l-1,.022c-.015-.664-.027-1.337-.036-2Zm482.453,1.757,1,.021c-.014.665-.031,1.339-.05,2l-1-.029C482.947,248.282,482.963,247.61,482.977,246.948ZM.72,252.173c.028.661.059,1.331.093,1.992l-1,.051c-.034-.663-.065-1.336-.093-2Zm482.01,1.754,1,.05c-.033.665-.069,1.34-.108,2l-1-.058C482.662,255.262,482.7,254.59,482.731,253.927ZM1.116,259.146c.047.661.1,1.331.15,1.991l-1,.079c-.053-.663-.1-1.336-.151-2ZM482.284,260.9l1,.078c-.052.663-.108,1.336-.165,2l-1-.086C482.177,262.231,482.232,261.561,482.284,260.9Zm-480.572,5.2c.066.66.136,1.329.207,1.988l-.994.108c-.072-.662-.142-1.333-.208-2Zm479.925,1.752.994.107c-.071.661-.146,1.331-.223,1.991l-.993-.115C481.492,269.183,481.567,268.516,481.637,267.857ZM2.509,273.047c.085.657.174,1.323.264,1.979l-.991.137c-.091-.659-.18-1.327-.266-1.987Zm478.281,1.744.991.136c-.09.658-.184,1.325-.28,1.983l-.99-.144C480.607,276.111,480.7,275.447,480.79,274.791ZM3.506,279.961c.1.654.212,1.316.322,1.969l-.986.165c-.11-.655-.218-1.321-.323-1.977ZM479.743,281.7l.986.164c-.109.655-.223,1.32-.337,1.974l-.985-.172C479.521,283.011,479.634,282.349,479.743,281.7ZM4.7,286.843c.123.65.25,1.309.378,1.957l-.981.194c-.129-.652-.257-1.313-.38-1.966ZM478.5,288.568l.981.193c-.128.653-.261,1.315-.395,1.966l-.98-.2C478.236,289.877,478.368,289.218,478.5,288.568ZM6.1,293.686c.142.647.288,1.3.436,1.948l-.975.222c-.148-.648-.3-1.306-.437-1.956ZM477.049,295.4l.975.221c-.147.649-.3,1.306-.452,1.954l-.973-.23C476.75,296.7,476.9,296.049,477.049,295.4ZM7.7,300.485c.161.643.327,1.294.493,1.936l-.968.251c-.167-.644-.333-1.3-.495-1.944ZM475.4,302.192l.968.25c-.166.644-.337,1.3-.509,1.939l-.966-.258C475.067,303.483,475.237,302.833,475.4,302.192ZM9.489,307.238c.179.638.364,1.283.549,1.919l-.96.279c-.185-.639-.371-1.287-.551-1.928ZM473.56,308.93l.961.278c-.185.638-.375,1.285-.565,1.922l-.958-.286C473.187,310.21,473.376,309.566,473.56,308.93Zm-462.081,5c.2.632.4,1.271.6,1.9l-.952.307c-.2-.633-.408-1.275-.607-1.909Zm460.043,1.676.952.306c-.2.633-.412,1.274-.621,1.9l-.95-.314C471.111,316.879,471.319,316.241,471.522,315.611ZM13.663,320.569c.216.625.438,1.259.659,1.882l-.942.334c-.222-.626-.445-1.262-.662-1.89Zm455.627,1.659.943.333c-.222.627-.449,1.262-.677,1.888l-.94-.341C468.842,323.485,469.068,322.853,469.289,322.228Zm-453.25,4.909c.234.619.475,1.247.714,1.864l-.932.362c-.241-.62-.482-1.25-.717-1.872Zm450.825,1.643.933.361c-.24.62-.486,1.248-.731,1.867l-.93-.369C466.38,330.023,466.625,329.4,466.864,328.78ZM18.606,333.633c.252.612.511,1.232.769,1.843l-.921.389c-.259-.613-.518-1.236-.772-1.851Zm445.643,1.625.922.388c-.258.613-.522,1.233-.785,1.844l-.918-.4C463.729,336.486,463.992,335.868,464.249,335.258ZM21.362,340.053c.27.6.546,1.217.822,1.819l-.91.415c-.276-.6-.554-1.219-.825-1.826Zm440.085,1.6.91.414c-.275.6-.557,1.217-.838,1.819l-.907-.422C460.892,342.868,461.173,342.258,461.447,341.656ZM24.3,346.389c.287.6.581,1.2.874,1.794l-.9.442c-.294-.6-.589-1.2-.877-1.8ZM458.46,347.97l.9.441c-.293.6-.593,1.2-.891,1.8l-.894-.448C457.869,349.166,458.168,348.564,458.46,347.97ZM27.427,352.636c.3.588.616,1.183.926,1.768l-.884.468c-.311-.588-.624-1.185-.93-1.775Zm427.863,1.558.884.467c-.31.588-.628,1.183-.943,1.769l-.881-.474C454.665,355.373,454.981,354.78,455.29,354.195Zm-424.559,4.6c.322.579.651,1.165.977,1.741l-.87.493c-.328-.579-.658-1.167-.981-1.748Zm421.21,1.535.871.492c-.327.579-.661,1.164-.993,1.741l-.866-.5C451.282,361.485,451.615,360.9,451.941,360.325ZM34.212,364.847c.338.569.684,1.145,1.027,1.712l-.855.518c-.344-.569-.691-1.147-1.031-1.719Zm414.2,1.509.856.517c-.344.569-.695,1.144-1.043,1.711l-.852-.524C447.723,367.5,448.073,366.922,448.415,366.356ZM37.868,370.8c.354.559.716,1.125,1.076,1.681l-.84.543c-.361-.559-.724-1.126-1.08-1.688Zm406.849,1.482.841.542c-.36.559-.728,1.124-1.093,1.68l-.836-.549C443.992,373.4,444.358,372.838,444.717,372.281ZM41.693,376.644c.371.549.749,1.1,1.124,1.649l-.824.567c-.377-.548-.756-1.105-1.129-1.656ZM440.849,378.1l.825.566c-.376.548-.76,1.1-1.141,1.648l-.82-.573C440.092,379.2,440.474,378.644,440.849,378.1ZM45.686,382.375c.386.538.781,1.082,1.171,1.616l-.807.59c-.392-.537-.788-1.083-1.176-1.623ZM436.814,383.8l.808.589c-.392.537-.791,1.08-1.188,1.614l-.8-.6C436.025,384.876,436.423,384.335,436.814,383.8Zm-386.97,4.189c.4.526.811,1.059,1.217,1.582l-.79.613c-.408-.525-.819-1.06-1.222-1.588Zm382.772,1.395.791.612c-.407.526-.822,1.057-1.234,1.579l-.785-.619C431.8,390.436,432.211,389.907,432.616,389.384Zm-378.455,4.1c.417.515.841,1.035,1.262,1.546l-.772.636c-.423-.513-.849-1.036-1.268-1.552Zm374.1,1.363.773.635c-.422.514-.852,1.033-1.279,1.543l-.767-.641C427.41,395.873,427.839,395.356,428.259,394.844Zm-369.625,4c.431.5.871,1.01,1.306,1.509l-.753.658c-.437-.5-.879-1.011-1.312-1.515Zm365.113,1.33.754.657c-.437.5-.882,1.008-1.323,1.506l-.749-.663C422.869,401.18,423.312,400.676,423.747,400.176ZM63.26,404.08c.446.49.9.985,1.349,1.471l-.734.679c-.452-.488-.907-.985-1.355-1.477Zm355.822,1.3.735.678c-.451.489-.91.982-1.366,1.467l-.729-.684C418.176,406.355,418.634,405.863,419.083,405.377Zm-351.048,3.8c.46.477.928.958,1.391,1.431l-.714.7c-.465-.475-.935-.958-1.4-1.437Zm346.236,1.262.715.7c-.465.475-.938.956-1.407,1.427l-.709-.7C413.337,411.392,413.808,410.914,414.271,410.441Zm-341.316,3.7c.473.463.955.931,1.432,1.391l-.694.72c-.479-.461-.962-.931-1.438-1.4Zm336.361,1.226.695.719c-.478.462-.965.928-1.448,1.386l-.689-.725C408.354,416.289,408.839,415.824,409.316,415.364Zm-331.3,3.589c.486.45.981.9,1.471,1.349l-.673.74c-.492-.447-.989-.9-1.477-1.355Zm326.205,1.19.674.739c-.491.448-.992.9-1.487,1.344l-.668-.745C403.233,421.04,403.731,420.589,404.221,420.143ZM83.212,423.622c.5.435,1.007.875,1.509,1.306l-.651.759c-.5-.433-1.014-.874-1.515-1.311Zm315.778,1.152.652.758c-.5.434-1.017.871-1.525,1.3l-.646-.764C397.977,425.641,398.488,425.205,398.99,424.773ZM88.541,428.138c.511.421,1.031.845,1.546,1.262l-.629.777c-.517-.418-1.039-.845-1.552-1.267Zm305.088,1.113.63.777c-.516.419-1.042.842-1.562,1.256l-.624-.782C392.591,430.089,393.115,429.668,393.629,429.251ZM94,432.5c.523.406,1.056.815,1.582,1.217l-.607.8c-.529-.4-1.063-.814-1.589-1.222Zm294.143,1.073.607.794c-.528.4-1.066.811-1.6,1.211l-.6-.8C387.079,434.38,387.614,433.975,388.141,433.573ZM99.578,436.7c.535.391,1.079.785,1.617,1.171l-.583.812c-.54-.388-1.086-.784-1.623-1.176Zm282.952,1.033.584.812c-.54.388-1.088.78-1.631,1.164l-.577-.816C381.446,438.511,381.992,438.121,382.53,437.734Zm-277.252,3.007c.546.375,1.1.753,1.649,1.124l-.56.829c-.551-.372-1.108-.752-1.656-1.128Zm271.524.991.56.828c-.551.373-1.111.748-1.664,1.116l-.554-.833C375.7,442.477,376.253,442.1,376.8,441.732Zm-265.711,2.882c.556.359,1.122.721,1.681,1.075l-.535.845c-.561-.356-1.129-.719-1.688-1.08Zm259.87.948.536.844c-.561.357-1.132.716-1.7,1.068l-.529-.848C369.833,446.275,370.4,445.917,370.96,445.562Zm-253.947,2.755c.567.343,1.142.688,1.712,1.027l-.511.86c-.572-.34-1.15-.686-1.719-1.031Zm248,.905.512.859c-.572.34-1.152.683-1.727,1.018l-.5-.863C363.863,449.9,364.441,449.561,365.01,449.222Zm-241.969,2.625c.576.327,1.162.655,1.741.977l-.486.874c-.581-.323-1.17-.653-1.749-.981Zm235.916.862.486.874c-.581.323-1.171.649-1.755.967l-.479-.878C357.79,453.355,358.378,453.031,358.957,452.709ZM129.169,455.2c.585.31,1.18.621,1.768.925l-.46.888c-.59-.306-1.188-.618-1.775-.929Zm223.636.816.461.887c-.59.306-1.19.615-1.782.916l-.454-.891C351.62,456.63,352.217,456.323,352.8,456.017Zm-217.414,2.358c.594.292,1.2.586,1.794.873l-.434.9c-.6-.288-1.2-.583-1.8-.877Zm211.169.77.435.9c-.6.289-1.207.58-1.809.864l-.427-.9C345.358,459.724,345.964,459.434,346.56,459.146ZM141.7,461.368c.6.275,1.215.551,1.819.821l-.408.913c-.607-.271-1.222-.548-1.827-.824Zm198.524.724.409.913c-.607.272-1.224.545-1.834.812l-.4-.916C339.007,462.635,339.622,462.363,340.227,462.092ZM148.1,464.175c.61.257,1.231.516,1.843.768l-.381.925c-.615-.253-1.238-.513-1.851-.771Zm185.711.678.382.924c-.615.254-1.239.509-1.855.757l-.374-.927C332.576,465.36,333.2,465.106,333.809,464.853ZM154.574,466.8c.617.239,1.245.48,1.864.714l-.354.935c-.622-.235-1.252-.476-1.872-.717Zm172.74.63.355.935c-.621.236-1.253.472-1.876.7l-.347-.938C326.067,467.9,326.7,467.66,327.315,467.426Zm-166.19,1.8c.624.221,1.257.443,1.882.659l-.326.945c-.628-.217-1.264-.439-1.89-.661Zm159.625.581.327.945c-.628.218-1.266.436-1.9.648l-.319-.948C319.488,470.241,320.123,470.024,320.749,469.807ZM167.74,471.463c.63.2,1.27.406,1.9.6l-.3.954c-.634-.2-1.277-.4-1.91-.606ZM314.116,472l.3.954c-.635.2-1.279.4-1.916.593l-.292-.957C312.842,472.393,313.484,472.195,314.116,472Zm-139.7,1.511c.636.185,1.282.369,1.92.548l-.271.963c-.64-.18-1.289-.365-1.928-.551Zm133,.484.272.962c-.64.181-1.29.361-1.932.536l-.263-.965C306.136,474.351,306.784,474.171,307.421,473.991Zm-126.266,1.364c.642.166,1.293.332,1.936.492l-.242.97c-.646-.161-1.3-.328-1.944-.494Zm119.515.435.243.97c-.644.162-1.3.323-1.945.479l-.235-.972C299.377,476.112,300.029,475.951,300.67,475.79Zm-112.727,1.216c.646.147,1.3.293,1.948.435l-.214.977c-.65-.142-1.308-.289-1.956-.437Zm105.928.384.215.977c-.649.143-1.308.285-1.958.422l-.207-.978C292.569,477.675,293.225,477.533,293.872,477.391Zm-99.094,1.068c.649.128,1.307.255,1.957.378l-.185.983c-.653-.123-1.314-.251-1.966-.38Zm92.252.334.186.982c-.653.124-1.316.247-1.971.366l-.178-.984C285.719,479.039,286.379,478.916,287.03,478.793Zm-85.382.919c.653.109,1.315.217,1.969.321l-.157.988c-.657-.1-1.322-.213-1.977-.322Zm78.5.284.158.987c-.657.105-1.324.209-1.982.308l-.15-.989C278.831,480.2,279.495,480.1,280.149,480Zm-71.6.769c.656.09,1.322.179,1.979.264l-.128.992c-.66-.085-1.328-.175-1.987-.265Zm64.683.234.129.992c-.66.086-1.33.17-1.99.251l-.121-.993C271.911,481.168,272.578,481.084,273.235,481Zm-57.75.619c.659.071,1.328.141,1.988.207l-.1.995c-.663-.066-1.334-.136-2-.208Zm50.809.183.1.995c-.661.067-1.332.132-1.994.193l-.092-1C264.969,481.931,265.637,481.867,266.295,481.8Zm-43.854.469c.66.052,1.33.1,1.991.15l-.071,1c-.664-.047-1.336-.1-2-.15Zm36.894.133.072,1c-.662.048-1.334.093-2,.136l-.064-1C258.007,482.495,258.676,482.449,259.335,482.4Zm-29.921.319c.66.033,1.33.064,1.991.092l-.042,1c-.664-.028-1.336-.059-2-.093Zm22.949.082.043,1c-.664.029-1.337.055-2,.078l-.035-1C251.031,482.858,251.7,482.832,252.363,482.8Zm-15.969.17c.661.014,1.332.026,1.993.035l-.014,1c-.664-.009-1.338-.021-2-.036Zm8.987.032.015,1c-.665.01-1.339.017-2,.021l-.007-1C244.047,483.022,244.719,483.015,245.381,483.005Z" fill="#a3b3e5"/>
          <ellipse id="Ellipse_9453" data-name="Ellipse 9453" cx="171.513" cy="171.998" rx="171.513" ry="171.998" transform="translate(70.737 69.526)" fill="url(#linear-gradient-2)"/>
          <path id="Ellipse_9454" data-name="Ellipse 9454" d="M127.3-.5v1c-.646,0-1.3,0-1.946.015l-.015-1C125.99-.5,126.65-.5,127.3-.5Zm0,0c.667,0,1.343.005,2.01.016l-.015,1C128.634.505,127.964.5,127.3.5Zm-6.977.187.054,1c-.66.036-1.329.077-1.988.122l-.069-1C118.985-.235,119.659-.277,120.325-.313Zm14,0c.665.036,1.34.078,2,.124l-.07,1c-.659-.046-1.328-.087-1.988-.123ZM113.321.256l.108.994c-.657.071-1.322.149-1.977.231l-.124-.992C111.988.406,112.659.328,113.321.256Zm28.01.005c.662.072,1.333.151,1.993.233l-.124.992c-.655-.082-1.321-.16-1.977-.232Zm-34.971.946.163.987c-.652.108-1.313.222-1.963.34l-.178-.984C105.036,1.431,105.7,1.316,106.359,1.208Zm41.933.008c.657.109,1.323.224,1.978.343l-.179.984c-.65-.118-1.311-.232-1.963-.34ZM99.461,2.541l.217.976c-.646.143-1.3.294-1.942.448L97.5,2.992C98.152,2.838,98.81,2.686,99.461,2.541Zm55.728.01c.651.145,1.309.3,1.957.452l-.233.973c-.643-.154-1.3-.3-1.942-.448Zm-62.544,1.7.271.963c-.636.179-1.28.365-1.913.554l-.286-.958C91.356,4.623,92,4.435,92.646,4.255ZM162,4.268c.641.18,1.29.369,1.928.559l-.286.958c-.633-.189-1.277-.376-1.913-.555ZM85.936,6.343l.324.946c-.625.214-1.258.436-1.879.659l-.338-.941C84.668,6.782,85.306,6.558,85.936,6.343Zm82.777.016c.63.216,1.267.44,1.894.665l-.339.941c-.622-.224-1.254-.446-1.879-.66ZM79.353,8.8l.375.927c-.613.248-1.232.5-1.841.763l-.39-.921C78.111,9.308,78.735,9.049,79.353,8.8Zm95.942.018c.617.25,1.242.509,1.855.769l-.39.921c-.609-.258-1.228-.515-1.841-.763Zm-102.38,2.8.426.9c-.6.282-1.2.572-1.8.863l-.44-.9C71.7,12.193,72.313,11.9,72.915,11.616Zm108.816.021c.6.284,1.211.577,1.809.87l-.441.9c-.593-.291-1.2-.582-1.8-.864ZM66.643,14.785l.475.88c-.581.314-1.169.637-1.745.961l-.489-.872C65.465,15.427,66.057,15.1,66.643,14.785ZM188,14.808c.586.317,1.178.643,1.758.969l-.489.872c-.576-.324-1.163-.647-1.745-.961ZM60.555,18.293l.523.852c-.563.346-1.132.7-1.69,1.055l-.536-.844C59.414,19,59.988,18.642,60.555,18.293Zm133.533.025c.568.349,1.141.707,1.7,1.064l-.537.844c-.558-.355-1.126-.71-1.69-1.056ZM54.669,22.131l.569.822c-.543.376-1.092.762-1.629,1.146l-.582-.813C53.569,22.9,54.122,22.51,54.669,22.131Zm145.3.028c.548.379,1.1.768,1.642,1.156l-.582.813c-.537-.385-1.085-.771-1.629-1.147ZM49,26.286l.613.79c-.522.405-1.048.82-1.564,1.234l-.625-.78C47.946,27.113,48.477,26.695,49,26.286Zm156.636.03c.526.409,1.056.827,1.576,1.244l-.626.78c-.516-.414-1.042-.829-1.564-1.234ZM43.572,30.745l.655.755c-.5.433-1,.877-1.494,1.318l-.667-.745C42.562,31.628,43.069,31.182,43.572,30.745Zm167.495.032c.5.437,1.01.884,1.506,1.328l-.667.745c-.492-.441-.995-.885-1.494-1.318ZM38.393,35.494l.7.718c-.475.46-.953.93-1.42,1.4l-.707-.707C37.433,36.431,37.915,35.957,38.393,35.494Zm177.851.034c.478.464.96.938,1.431,1.409l-.707.707c-.467-.467-.945-.938-1.42-1.4ZM33.482,40.519l.734.679c-.449.485-.9.981-1.342,1.473L32.13,42C32.574,41.507,33.029,41.008,33.482,40.519Zm187.672.036c.452.489.907.989,1.352,1.485l-.745.667c-.441-.492-.892-.988-1.341-1.473ZM28.852,45.8l.77.638c-.422.509-.845,1.028-1.259,1.544l-.78-.626C28,46.841,28.427,46.317,28.852,45.8Zm196.93.037c.425.513.852,1.037,1.268,1.556l-.78.626c-.413-.516-.837-1.035-1.259-1.544ZM24.518,51.335l.8.6c-.393.531-.788,1.073-1.173,1.611l-.813-.582C23.724,52.417,24.122,51.871,24.518,51.335Zm205.6.039c.4.536.794,1.082,1.181,1.624l-.813.582c-.385-.537-.779-1.079-1.172-1.611ZM20.494,57.1l.835.55c-.364.552-.728,1.115-1.083,1.672L19.4,58.78C19.76,58.218,20.127,57.651,20.494,57.1Zm213.642.041c.366.557.733,1.124,1.09,1.686l-.844.537c-.355-.558-.719-1.12-1.082-1.673ZM16.791,63.067l.864.5c-.333.571-.665,1.153-.989,1.729l-.872-.49C16.12,64.229,16.456,63.643,16.791,63.067Zm221.045.042c.335.576.67,1.162,1,1.743l-.872.489c-.323-.576-.656-1.158-.988-1.73ZM13.423,69.234l.89.455c-.3.589-.6,1.188-.892,1.781l-.9-.441C12.817,70.431,13.12,69.827,13.423,69.234Zm227.779.043c.3.594.605,1.2.9,1.8l-.9.441c-.291-.593-.591-1.193-.892-1.782Zm-230.8,6.3.914.405c-.268.6-.534,1.219-.793,1.827L9.6,77.419C9.861,76.806,10.13,76.186,10.4,75.577Zm233.823.044c.27.609.538,1.229.8,1.842l-.921.39c-.258-.608-.524-1.223-.792-1.828ZM7.732,82.078l.935.354c-.234.618-.466,1.247-.69,1.868l-.941-.339C7.262,83.335,7.5,82.7,7.732,82.078Zm239.156.045c.236.623.469,1.257.7,1.884l-.941.339c-.224-.622-.456-1.251-.689-1.869ZM5.428,88.716l.953.3c-.2.63-.4,1.271-.586,1.9l-.958-.286C5.028,90,5.227,89.352,5.428,88.716Zm243.761.046c.2.635.4,1.281.59,1.92l-.958.286c-.189-.634-.386-1.274-.585-1.9ZM3.5,95.472l.969.248c-.164.64-.325,1.291-.479,1.933l-.973-.233C3.167,96.773,3.33,96.117,3.5,95.472Zm247.624.047c.165.645.327,1.3.482,1.949l-.973.233c-.154-.643-.315-1.293-.479-1.934ZM1.939,102.326l.981.194c-.128.648-.253,1.306-.371,1.956l-.984-.179C1.684,103.642,1.81,102.979,1.939,102.326Zm250.734.048c.129.653.255,1.316.374,1.972l-.984.178c-.118-.65-.243-1.308-.371-1.956ZM.765,109.252l.99.14c-.093.655-.181,1.319-.263,1.975L.5,111.243C.582,110.582.671,109.912.765,109.252Zm253.08.048c.093.66.182,1.33.265,1.991l-.992.124c-.082-.656-.17-1.321-.263-1.976ZM-.027,116.234l1,.085c-.056.659-.109,1.327-.155,1.987l-1-.07C-.137,117.571-.084,116.9-.027,116.234Zm254.662.048c.057.664.109,1.338.155,2l-1,.07c-.046-.66-.1-1.328-.154-1.987ZM-.437,123.248l1,.031c-.021.66-.036,1.33-.047,1.991l-1-.016C-.474,124.589-.458,123.914-.437,123.248Zm255.478.049c.02.665.036,1.34.046,2.007l-1,.015c-.01-.661-.026-1.331-.046-1.991ZM.534,130.254c.015.662.036,1.332.061,1.993l-1,.038c-.026-.666-.046-1.342-.061-2.008Zm253.534.048,1,.023c-.016.667-.036,1.343-.062,2.008l-1-.039C254.032,131.634,254.053,130.964,254.068,130.3ZM.882,137.218c.051.659.108,1.327.169,1.985l-1,.093c-.062-.663-.119-1.336-.171-2Zm252.835.048,1,.077c-.052.664-.109,1.338-.171,2l-1-.093C253.609,138.593,253.666,137.925,253.717,137.266ZM1.61,144.152c.087.655.18,1.318.278,1.971l-.989.147c-.1-.658-.192-1.327-.28-1.987Zm251.377.048.991.132c-.088.66-.182,1.329-.281,1.987l-.989-.148C252.806,145.518,252.9,144.855,252.987,144.2ZM2.717,151.035c.123.649.253,1.307.386,1.954l-.979.2c-.134-.652-.265-1.315-.389-1.97Zm249.159.047.982.186c-.124.655-.255,1.317-.39,1.97l-.979-.2C251.623,152.389,251.753,151.732,251.876,151.083ZM4.2,157.846c.159.642.325,1.292.494,1.931l-.967.255c-.17-.644-.338-1.3-.5-1.946Zm246.185.047.971.24c-.16.647-.328,1.3-.5,1.946l-.967-.256C250.063,159.184,250.229,158.534,250.388,157.892ZM6.064,164.565c.194.632.4,1.271.6,1.9l-.951.309c-.206-.634-.409-1.278-.6-1.915Zm242.462.046.956.294c-.2.637-.4,1.281-.605,1.914l-.951-.309C248.129,165.882,248.331,165.243,248.525,164.611ZM8.293,171.17c.229.62.465,1.247.7,1.863l-.933.361c-.24-.621-.479-1.253-.709-1.878Zm238,.045.938.346c-.231.625-.47,1.257-.71,1.878l-.933-.361C245.827,172.462,246.064,171.835,246.293,171.216ZM10.885,177.642c.263.607.534,1.22.806,1.822l-.911.412c-.274-.607-.548-1.225-.813-1.837Zm232.813.044.918.4c-.265.611-.539,1.229-.813,1.836l-.911-.412C243.164,178.905,243.435,178.292,243.7,177.686ZM13.831,183.96c.3.591.6,1.188.905,1.774l-.887.461c-.307-.591-.614-1.193-.912-1.788ZM240.75,184l.894.448c-.3.6-.605,1.2-.913,1.788l-.887-.462C240.149,185.191,240.454,184.594,240.75,184Zm-223.628,6.1c.328.574.665,1.153,1,1.722l-.86.51c-.34-.573-.679-1.157-1.01-1.735Zm220.336.042.868.5c-.331.578-.671,1.162-1.01,1.735l-.86-.51C236.792,191.3,237.129,190.722,237.457,190.149ZM20.745,196.063c.359.555.727,1.115,1.095,1.665l-.831.556c-.371-.554-.742-1.118-1.1-1.678Zm213.087.04.84.543c-.362.559-.733,1.124-1.1,1.677l-.831-.556C233.1,197.218,233.473,196.658,233.832,196.1ZM24.69,201.811c.389.534.787,1.073,1.184,1.6l-.8.6c-.4-.533-.8-1.076-1.194-1.614Zm205.195.039.808.589c-.392.539-.794,1.081-1.194,1.614l-.8-.6C229.1,202.923,229.5,202.385,229.885,201.85ZM28.944,207.335c.417.512.845,1.029,1.27,1.535l-.765.644c-.429-.51-.86-1.03-1.28-1.547Zm196.685.037.775.632c-.421.516-.852,1.036-1.281,1.546l-.765-.644C224.783,208.4,225.211,207.885,225.629,207.372ZM33.493,212.618c.445.489.9.981,1.352,1.463l-.729.685c-.456-.486-.915-.982-1.363-1.474Zm187.584.036.739.673c-.449.493-.907.988-1.363,1.474l-.729-.685C220.177,213.634,220.632,213.142,221.077,212.653ZM38.325,217.644c.471.464.952.93,1.43,1.387l-.69.723c-.482-.46-.967-.93-1.441-1.4Zm177.919.034.7.713c-.475.467-.96.937-1.442,1.4l-.69-.724C215.291,218.608,215.772,218.141,216.244,217.678ZM43.424,222.4c.5.437,1,.877,1.5,1.307l-.65.76c-.506-.433-1.016-.876-1.516-1.317Zm167.719.032.661.75c-.5.441-1.01.884-1.516,1.316l-.65-.76C210.141,223.307,210.647,222.868,211.143,222.431ZM48.775,226.868c.519.41,1.048.821,1.573,1.222l-.607.794c-.529-.4-1.062-.819-1.585-1.232Zm157.015.03.62.785c-.523.413-1.057.827-1.586,1.231l-.607-.795C204.742,227.718,205.271,227.307,205.79,226.9Zm-151.428,4.14c.54.381,1.091.762,1.638,1.135l-.563.826c-.551-.375-1.106-.76-1.651-1.143Zm145.839.028.576.818c-.545.383-1.1.768-1.651,1.143l-.563-.827C199.109,231.827,199.66,231.446,200.2,231.065ZM60.17,234.895c.56.35,1.132.7,1.7,1.043l-.517.856c-.57-.344-1.146-.7-1.711-1.051Zm134.222.026.53.848c-.565.353-1.141.706-1.711,1.05l-.516-.856C193.26,235.621,193.831,235.27,194.392,234.92ZM66.181,238.427c.579.319,1.168.638,1.752.948l-.469.883c-.588-.312-1.182-.634-1.766-.955Zm122.2.023.482.876c-.584.321-1.178.643-1.766.955l-.469-.883C187.211,239.088,187.8,238.769,188.38,238.45Zm-116,3.172c.6.287,1.2.573,1.8.85l-.419.908c-.6-.279-1.216-.568-1.816-.857Zm109.806.021.433.9c-.6.289-1.212.577-1.817.856l-.419-.908C180.981,242.216,181.587,241.93,182.183,241.643ZM78.74,244.471c.61.253,1.231.505,1.846.749l-.369.93c-.619-.245-1.245-.5-1.86-.755Zm97.079.018.383.924c-.615.255-1.241.509-1.861.754l-.368-.93C174.587,244.995,175.208,244.743,175.819,244.49Zm-90.568,2.474c.624.219,1.258.436,1.884.645l-.317.949c-.632-.211-1.271-.43-1.9-.651Zm84.056.016.331.944c-.629.221-1.268.439-1.9.65l-.316-.949C168.049,247.416,168.683,247.2,169.307,246.98Zm-77.418,2.112c.635.184,1.28.366,1.918.54l-.264.965c-.643-.176-1.293-.359-1.933-.545Zm70.779.013.278.96c-.64.186-1.291.368-1.934.544l-.263-.965C161.387,249.471,162.033,249.289,162.668,249.105Zm-64.033,1.744c.644.149,1.3.295,1.944.433l-.21.978c-.651-.14-1.311-.287-1.96-.437Zm57.285.011.225.974c-.649.15-1.308.3-1.96.436l-.209-.978C154.623,251.154,155.277,251.008,155.921,250.86Zm-50.451,1.371c.651.113,1.311.222,1.964.325l-.155.988c-.658-.1-1.324-.214-1.98-.327Zm43.616.008.171.985c-.656.114-1.322.223-1.98.327l-.155-.988C147.774,252.461,148.435,252.351,149.086,252.239Zm-36.718.994c.656.077,1.323.15,1.981.217l-.1.995c-.663-.067-1.335-.141-2-.218Zm29.819.006.116.993c-.662.077-1.333.151-2,.218l-.1-.995C140.864,253.388,141.531,253.315,142.187,253.238Zm-22.876.617c.66.041,1.33.077,1.99.108l-.047,1c-.666-.031-1.341-.068-2.006-.109Zm15.932,0,.062,1c-.665.041-1.34.078-2.006.108l-.046-1C133.914,253.935,134.584,253.9,135.244,253.858Zm-8.964.241c.662.005,1.334.005,2,0l.008,1c-.667.005-1.344,0-2.012,0Z" transform="translate(115.095 128.219)" fill="#fff" opacity="0.12"/>
          <circle id="Ellipse_9456" data-name="Ellipse 9456" cx="88.682" cy="88.682" r="88.682" transform="matrix(0.259, 0.966, -0.966, 0.259, 305.362, 132.844)" opacity="0.64" fill="url(#linear-gradient-3)"/>
          <g id="pronto" transform="translate(194.262 200.593)" opacity="0.469">
            <path id="Path_9564" data-name="Path 9564" d="M232.671,247.869c2.2-1.76,4.8-3.876,7.76-6.358,5.386-4.513,14.675-8.322,25.436-12.731,11.329-4.644,24.158-9.907,35.458-17.166,14.089-9.039,22.483-28.028,26.486-39.541-9.29,5.933-19.074,9.8-29.294,13.849-10.739,4.248-21.84,8.644-33.665,15.846C247.332,212.449,237.273,234.836,232.671,247.869Z" transform="translate(-232.671 -167.749)" fill="#162447"/>
            <g id="Group_4425" data-name="Group 4425" transform="translate(10.729 0)">
              <path id="Path_247" data-name="Path 247" d="M259.353,196.721c12.334-7.505,23.709-12.008,34.707-16.36,3.99-1.581,7.907-3.143,11.749-4.809a26.169,26.169,0,0,0-7.627-4.669,35.6,35.6,0,0,0-13.438-2.35,37.649,37.649,0,0,0-18.527,4.479,45.375,45.375,0,0,0-13.669,11.545,50.413,50.413,0,0,0-8.44,15.865,57.042,57.042,0,0,0-2.653,12.932A66.77,66.77,0,0,1,259.353,196.721Z" transform="translate(-241.454 -168.533)" fill="#162447"/>
              <path id="Path_248" data-name="Path 248" d="M301.41,211.043c-11.824,7.6-24.97,12.985-36.562,17.743-5.976,2.454-11.451,4.705-15.9,6.924a25.829,25.829,0,0,0,7.675,4.8,35.549,35.549,0,0,0,13.519,2.35,38.551,38.551,0,0,0,18.881-4.483,43.2,43.2,0,0,0,13.593-11.531,50.858,50.858,0,0,0,8.232-15.874,58.969,58.969,0,0,0,2.289-10.437A52.6,52.6,0,0,1,301.41,211.043Z" transform="translate(-239.793 -161.443)" fill="#162447"/>
            </g>
          </g>
        </g>
      </g>
      <g id="Group_19073" data-name="Group 19073" transform="translate(65.699 3.876)">
        <circle id="dot-circle" cx="56.687" cy="56.687" r="56.687" transform="translate(0 0)" fill="#0e3c8e"/>
        <path id="dot-circle_-_Outline" data-name="dot-circle - Outline" d="M56.687-.5c.67,0,1.349.012,2.018.035l-.035,1C58.013.512,57.346.5,56.687.5ZM52.44-.345l.073,1c-.657.048-1.321.109-1.975.18L50.43-.162C51.095-.234,51.771-.3,52.44-.345ZM63.73-.07c.665.082,1.337.176,2,.281l-.157.988c-.649-.1-1.31-.2-1.964-.276ZM45.446.6l.2.981c-.645.129-1.3.271-1.937.422l-.23-.973C44.126.88,44.789.735,45.446.6Zm25.223.617c.65.163,1.3.34,1.948.527l-.278.961c-.632-.183-1.276-.357-1.914-.517ZM38.624,2.411l.316.949c-.624.208-1.253.429-1.869.659l-.349-.937C37.348,2.848,37.988,2.623,38.624,2.411Zm38.77.953c.624.242,1.252.5,1.867.764l-.4.919c-.6-.26-1.222-.512-1.835-.751ZM32.078,5.051l.431.9c-.593.283-1.19.581-1.773.886l-.463-.887C30.867,5.643,31.474,5.339,32.078,5.051ZM83.8,6.324c.589.318,1.181.651,1.758.989l-.506.863c-.568-.333-1.149-.66-1.727-.972ZM25.91,8.48l.539.842c-.554.354-1.109.724-1.651,1.1L24.229,9.6C24.78,9.216,25.346,8.841,25.91,8.48Zm63.884,1.572c.545.388,1.092.791,1.623,1.2l-.608.794c-.522-.4-1.059-.8-1.6-1.177ZM20.21,12.642l.638.77c-.506.42-1.012.854-1.5,1.292l-.665-.747C19.18,13.511,19.695,13.069,20.21,12.642Zm75.072,1.846c.494.452.986.919,1.464,1.388l-.7.714c-.469-.461-.954-.92-1.439-1.364ZM15.064,17.471l.728.686c-.451.479-.9.972-1.334,1.466l-.751-.66C14.148,18.46,14.6,17.958,15.064,17.471Zm85.122,2.092c.435.509.867,1.033,1.283,1.557l-.783.622c-.409-.515-.834-1.029-1.261-1.53ZM10.548,22.894l.806.592c-.389.53-.774,1.075-1.144,1.619l-.827-.563C9.76,23.988,10.152,23.433,10.548,22.894ZM104.432,25.2c.369.559.733,1.132,1.082,1.7l-.853.522c-.343-.561-.7-1.124-1.064-1.673ZM6.732,28.83l.873.488c-.321.574-.636,1.162-.936,1.747l-.89-.457C6.084,30.013,6.405,29.415,6.732,28.83Zm101.22,2.486c.3.6.588,1.213.864,1.823l-.911.412c-.271-.6-.557-1.2-.849-1.791ZM3.677,35.192l.927.376c-.247.609-.487,1.232-.713,1.849l-.939-.343C3.181,36.446,3.425,35.813,3.677,35.192Zm107.011,2.629c.221.632.433,1.277.631,1.916l-.955.3c-.195-.628-.4-1.262-.62-1.882ZM1.434,41.884l.966.258c-.17.635-.33,1.283-.478,1.924l-.975-.224C1.1,43.19,1.262,42.531,1.434,41.884ZM112.6,44.616c.141.654.271,1.321.389,1.98l-.985.175c-.115-.648-.244-1.3-.382-1.945ZM.039,48.8l.991.137C.94,49.59.86,50.252.794,50.907l-.995-.1C-.133,50.139-.052,49.465.039,48.8Zm113.61,2.792c.059.666.107,1.344.142,2.013l-1,.053c-.035-.658-.082-1.323-.14-1.978ZM-.494,55.839l1,.015c0,.276-.006.557-.006.833,0,.382,0,.769.012,1.151l-1,.02C-.5,57.469-.5,57.075-.5,56.687-.5,56.405-.5,56.12-.494,55.839Zm113.335,2.778,1,.034c-.023.67-.057,1.347-.1,2.014l-1-.069C112.784,59.941,112.818,59.275,112.841,58.617ZM.827,62.783c.071.654.154,1.316.247,1.967l-.99.142c-.1-.662-.18-1.336-.252-2ZM112.183,65.52l.988.156c-.1.661-.222,1.33-.35,1.987l-.982-.191C111.965,66.826,112.08,66.17,112.183,65.52ZM1.995,69.617c.151.64.315,1.286.488,1.921l-.965.264c-.176-.646-.344-1.3-.5-1.955Zm108.684,2.671.961.277c-.186.643-.385,1.292-.593,1.928l-.95-.311C110.3,73.557,110.5,72.92,110.679,72.288ZM4,76.254c.229.616.472,1.237.723,1.845l-.924.381c-.255-.619-.5-1.251-.736-1.878Zm104.346,2.564.919.394c-.264.615-.542,1.234-.828,1.84l-.9-.427C107.814,80.03,108.088,79.422,108.347,78.817ZM6.814,82.591c.3.583.622,1.169.946,1.742l-.87.493c-.33-.583-.654-1.179-.963-1.773Zm98.41,2.417.863.5c-.338.578-.691,1.158-1.049,1.724l-.845-.535C104.545,86.145,104.892,85.575,105.224,85.008ZM10.39,88.532c.373.542.761,1.084,1.153,1.612l-.8.6c-.4-.538-.794-1.09-1.174-1.641Zm90.972,2.235.795.607c-.406.532-.828,1.064-1.253,1.581l-.773-.635C100.548,91.812,100.962,91.289,101.361,90.766ZM14.668,93.989c.437.492.889.983,1.342,1.459l-.724.69c-.462-.485-.922-.984-1.366-1.484Zm82.153,2.019.714.7c-.469.478-.952.955-1.437,1.416l-.689-.724C95.886,96.946,96.361,96.478,96.821,96.008ZM19.583,98.881c.494.435,1,.866,1.511,1.283l-.634.773c-.518-.424-1.035-.864-1.538-1.306Zm72.09,1.773.623.782c-.524.417-1.062.831-1.6,1.229l-.6-.8C90.63,101.47,91.159,101.064,91.673,100.654Zm-66.613,2.48c.543.371,1.1.737,1.657,1.088l-.534.845c-.566-.357-1.133-.73-1.686-1.107Zm60.935,1.5.522.853c-.571.35-1.156.694-1.739,1.023l-.492-.871C84.859,105.315,85.434,104.977,85.995,104.633ZM31.018,106.68c.585.3,1.183.6,1.778.876l-.426.9c-.606-.285-1.215-.585-1.81-.891Zm48.852,1.2.413.911c-.61.277-1.233.546-1.852.8l-.38-.925C78.658,108.419,79.271,108.154,79.87,107.883Zm-42.5,1.581c.618.226,1.248.444,1.873.648l-.31.951c-.637-.208-1.278-.43-1.907-.66Zm36.022.885.3.955c-.639.2-1.291.389-1.937.565l-.263-.965C72.121,110.731,72.762,110.544,73.39,110.349Zm-29.375,1.09c.641.148,1.293.286,1.939.411l-.19.982c-.658-.127-1.322-.268-1.974-.418Zm22.639.553.176.984c-.659.118-1.329.226-1.992.32l-.141-.99C65.348,112.214,66.007,112.108,66.654,111.992Zm-15.8.582c.654.067,1.318.124,1.975.169l-.068,1c-.668-.045-1.345-.1-2.01-.172Zm8.911.216.054,1c-.668.036-1.346.061-2.016.074l-.019-1C58.443,112.85,59.11,112.826,59.766,112.79Z" transform="translate(0 0)" fill="#a3b3e5"/>
        <g id="icon-maintained" transform="translate(-39.974 305.378)">
          <g transform="matrix(1, 0, 0, 1, -76.97, -358.61)" filter="url(#Path_23693)">
            <path id="Path_23693-5" data-name="Path 23693" d="M38.317,0A38.317,38.317,0,1,1,0,38.317,38.317,38.317,0,0,1,38.317,0Z" transform="translate(134.97 71.61)" fill="#fff"/>
          </g>
          <g id="Group_19156" data-name="Group 19156" transform="translate(80.053 -264.947)">
            <path id="Path_32636" data-name="Path 32636" d="M.151-25.449a11.685,11.685,0,0,0-2.4.25v-4.72a16.328,16.328,0,0,1,2.4-.177,16.225,16.225,0,0,1,10.972,4.254l2.135-2.136a1.161,1.161,0,0,1,1.982.821V-19.5a1.165,1.165,0,0,1-1.162,1.162H6.425A1.162,1.162,0,0,1,5.6-20.325l2.229-2.229A11.59,11.59,0,0,0,.151-25.449ZM-5.295-7.1-7.4-5A11.556,11.556,0,0,0,.151-2.216,12,12,0,0,0,2.4-2.426V2.279a16.324,16.324,0,0,1-2.244.152A16.519,16.519,0,0,1-10.69-1.708L-12.948.551A1.162,1.162,0,0,1-14.932-.27V-7.923A1.164,1.164,0,0,1-13.77-9.085h7.648A1.178,1.178,0,0,1-5.295-7.1Z" transform="translate(16.111 30.096)" fill="#139be8"/>
            <path id="Path_32635" data-name="Path 32635" d="M-5.63-28.807a1.163,1.163,0,0,1,1.162,1.162V-20a1.164,1.164,0,0,1-1.982.828l-2.222-2.222a11.591,11.591,0,0,0-2.785,7.552,11.824,11.824,0,0,0,.237,2.36h-4.715a16.369,16.369,0,0,1-.169-2.36,16.2,16.2,0,0,1,4.142-10.841L-14.1-26.824a1.158,1.158,0,0,1,.756-1.983H-5.63ZM6.772-8.271,8.878-6.165a11.523,11.523,0,0,0,2.9-7.675,11.314,11.314,0,0,0-.225-2.287h4.712a15.853,15.853,0,0,1,.16,2.287A16.252,16.252,0,0,1,12.174-2.868L14.425-.617A1.161,1.161,0,0,1,13.6,1.365H5.951A1.165,1.165,0,0,1,4.79.2V-7.45A1.161,1.161,0,0,1,6.772-8.271Z" transform="translate(16.105 30.103)" fill="#71bdeb"/>
          </g>
        </g>
      </g>
      <circle id="cyan" cx="5.892" cy="5.892" r="5.892" transform="translate(173.343 463.247)" fill="#139be8"/>
      <circle id="cyan-2" data-name="cyan" cx="4.91" cy="4.91" r="4.91" transform="translate(40.061 166.027)" fill="#43ab3f"/>
      <circle id="cyan-3" data-name="cyan" cx="3.876" cy="3.876" r="3.876" transform="translate(268.316)" fill="#d9dce2"/>
      <path id="cyan-4" data-name="cyan" d="M4.91,1A3.91,3.91,0,1,0,8.82,4.91,3.914,3.914,0,0,0,4.91,1m0-1A4.91,4.91,0,1,1,0,4.91,4.91,4.91,0,0,1,4.91,0Z" transform="translate(441.208 431.824)" fill="#a3b3e5"/>
      <g id="icon-performance" transform="translate(-56.748 519.254)">
        <g id="Group_16975" data-name="Group 16975" transform="translate(58 -287)">
          <g transform="matrix(1, 0, 0, 1, -52.5, -281.61)" filter="url(#Path_23693-2)">
            <path id="Path_23693-6" data-name="Path 23693" d="M32.8,0A32.8,32.8,0,1,1,0,32.8,32.8,32.8,0,0,1,32.8,0Z" transform="translate(52.5 281.61)" fill="#fff"/>
          </g>
          <g id="Group_19156-2" data-name="Group 19156" transform="translate(18.69 18.022)">
            <path id="Path_32278" data-name="Path 32278" d="M7.47-15.989a1.319,1.319,0,0,1,1.819.43,1.319,1.319,0,0,1-.43,1.819L2.382-9.727a3.518,3.518,0,0,1,.05.6A3.531,3.531,0,0,1-1.1-5.6,3.531,3.531,0,0,1-4.625-9.131,3.531,3.531,0,0,1-1.1-12.659a3.507,3.507,0,0,1,2.084.684Z" transform="translate(15.209 28.536)" fill="#43ab3f"/>
            <path id="Path_32277" data-name="Path 32277" d="M-4.387-32.375A14.112,14.112,0,0,1,9.725-18.262,14.112,14.112,0,0,1-4.387-4.15,14.112,14.112,0,0,1-18.5-18.262,14.112,14.112,0,0,1-4.387-32.375Zm-1.764,5.292a1.762,1.762,0,0,0,1.764,1.764,1.762,1.762,0,0,0,1.764-1.764,1.763,1.763,0,0,0-1.764-1.764A1.763,1.763,0,0,0-6.151-27.083ZM-.859-12.97a3.518,3.518,0,0,0-.05-.6l6.477-4.013A1.319,1.319,0,0,0,6-19.4a1.319,1.319,0,0,0-1.819-.43L-2.3-15.815A3.507,3.507,0,0,0-4.387-16.5,3.531,3.531,0,0,0-7.916-12.97,3.531,3.531,0,0,0-4.387-9.442,3.531,3.531,0,0,0-.859-12.97ZM.023-24.437a1.762,1.762,0,0,0,1.764,1.764,1.762,1.762,0,0,0,1.764-1.764A1.762,1.762,0,0,0,1.787-26.2,1.762,1.762,0,0,0,.023-24.437Zm-11.466,6.174a1.762,1.762,0,0,0-1.764-1.764,1.763,1.763,0,0,0-1.764,1.764A1.763,1.763,0,0,0-13.208-16.5,1.762,1.762,0,0,0-11.444-18.262Zm-.882-6.174a1.762,1.762,0,0,0,1.764,1.764A1.762,1.762,0,0,0-8.8-24.437,1.762,1.762,0,0,0-10.562-26.2,1.762,1.762,0,0,0-12.326-24.437Z" transform="translate(18.5 32.375)" fill="#8fe28c"/>
          </g>
        </g>
      </g>
      <g id="icon" transform="translate(317.84 424.114)">
        <g transform="matrix(1, 0, 0, 1, -369.09, -473.47)" filter="url(#Path_23693-3)">
          <path id="Path_23693-7" data-name="Path 23693" d="M45.059,0A45.025,45.025,0,1,1,0,45.025,45.042,45.042,0,0,1,45.059,0Z" transform="translate(369.09 473.47)" fill="#fff"/>
        </g>
        <path id="Path_26445" data-name="Path 26445" d="M32.606-9.716a5.657,5.657,0,0,0,2.018,0l.522.91a.787.787,0,0,0,.961.344,7.12,7.12,0,0,0,2.044-1.184.783.783,0,0,0,.178-1l-.522-.911A5.5,5.5,0,0,0,38.82-13.3H39.87a.792.792,0,0,0,.777-.662,7.174,7.174,0,0,0,0-2.362.786.786,0,0,0-.777-.656H38.82a5.5,5.5,0,0,0-1.012-1.745l.522-.91a.791.791,0,0,0-.178-1,7.034,7.034,0,0,0-2.044-1.184.787.787,0,0,0-.961.344l-.522.91a5.66,5.66,0,0,0-2.018,0l-.522-.91a.787.787,0,0,0-.961-.344,7.118,7.118,0,0,0-2.044,1.184.783.783,0,0,0-.178,1l.522.91A5.5,5.5,0,0,0,28.41-16.98H27.359a.792.792,0,0,0-.777.662,7.174,7.174,0,0,0,0,2.362.786.786,0,0,0,.777.656H28.41a5.5,5.5,0,0,0,1.012,1.745l-.522.911a.791.791,0,0,0,.178,1,7.036,7.036,0,0,0,2.044,1.184.787.787,0,0,0,.961-.344Zm-.669-3.744A2.378,2.378,0,0,1,35.3-16.821,2.378,2.378,0,0,1,31.937-13.459ZM24.6-3.661a11.064,11.064,0,0,0,0-4.043l2.146-1.07a1.522,1.522,0,0,0,.637-1.853,14.93,14.93,0,0,0-2.68-4.189,1.523,1.523,0,0,0-1.929-.337l-1.853,1.07a11.057,11.057,0,0,0-3.5-2.018v-2.139a1.53,1.53,0,0,0-1.273-1.5,14.522,14.522,0,0,0-4.839.006,1.516,1.516,0,0,0-1.248,1.5V-16.1a10.938,10.938,0,0,0-3.5,2.018l-1.853-1.07a1.522,1.522,0,0,0-1.929.337A14.949,14.949,0,0,0,.1-10.62,1.518,1.518,0,0,0,.764-8.773L2.884-7.7a11.032,11.032,0,0,0,0,4.037L.764-2.591A1.536,1.536,0,0,0,.1-.738,15.01,15.01,0,0,0,2.783,3.445a1.523,1.523,0,0,0,1.929.337L6.564,2.719a11.057,11.057,0,0,0,3.5,2.018V6.877a1.53,1.53,0,0,0,1.273,1.5,14.319,14.319,0,0,0,4.833,0,1.524,1.524,0,0,0,1.254-1.5V4.737a10.936,10.936,0,0,0,3.5-2.018l1.853,1.07A1.522,1.522,0,0,0,24.7,3.451,15.032,15.032,0,0,0,27.41-.738a1.531,1.531,0,0,0-.669-1.853ZM17.108-2.317c-4.9,3.769-10.5-1.827-6.73-6.73C15.281-12.816,20.878-7.22,17.108-2.317Zm15.5,11.633a5.66,5.66,0,0,0,2.018,0l.522.91a.787.787,0,0,0,.961.344,7.118,7.118,0,0,0,2.044-1.184.783.783,0,0,0,.178-1l-.522-.91A5.5,5.5,0,0,0,38.82,5.731H39.87a.792.792,0,0,0,.777-.662,7.174,7.174,0,0,0,0-2.362.786.786,0,0,0-.777-.656H38.82A5.5,5.5,0,0,0,37.807.306L38.33-.6a.791.791,0,0,0-.178-1,7.035,7.035,0,0,0-2.044-1.184.787.787,0,0,0-.961.344l-.522.91a5.657,5.657,0,0,0-2.018,0l-.522-.91a.787.787,0,0,0-.961-.344A7.12,7.12,0,0,0,29.078-1.6a.783.783,0,0,0-.178,1l.522.911A5.5,5.5,0,0,0,28.41,2.051H27.359a.792.792,0,0,0-.777.662,7.174,7.174,0,0,0,0,2.362.786.786,0,0,0,.777.656H28.41a5.5,5.5,0,0,0,1.012,1.745l-.522.91a.791.791,0,0,0,.178,1,7.034,7.034,0,0,0,2.044,1.184.787.787,0,0,0,.961-.344Zm-.669-3.75A2.378,2.378,0,0,1,35.3,2.2,2.378,2.378,0,0,1,31.937,5.565Z" transform="translate(25.394 51.345)" fill="#a3b3e5"/>
      </g>
      <g id="wordpress" transform="translate(-325.415 -185.641)">
        <g transform="matrix(1, 0, 0, 1, 274.17, 136.29)" filter="url(#Ellipse_9428)">
          <circle id="Ellipse_9428-2" data-name="Ellipse 9428" cx="26.604" cy="26.604" r="26.604" transform="translate(514.42 162.17)" fill="#fff"/>
        </g>
        <g id="W_Mark" data-name="W Mark" transform="translate(799.276 309.149)">
          <path id="Path_20360" data-name="Path 20360" d="M809.882,206.985a14.921,14.921,0,1,1-5.827,1.175,14.886,14.886,0,0,1,5.827-1.175m0-.955a15.915,15.915,0,1,0,15.915,15.915,15.915,15.915,0,0,0-15.915-15.915Z" transform="translate(-793.963 -206.03)" fill="#a3b3e5"/>
          <path id="Path_20361" data-name="Path 20361" d="M828.307,253.63a13.263,13.263,0,0,0,7.477,11.937l-6.329-17.333A13.213,13.213,0,0,0,828.307,253.63Zm22.218-.671a6.984,6.984,0,0,0-1.09-3.657,6.213,6.213,0,0,1-1.3-3.11,2.3,2.3,0,0,1,2.227-2.353c.059,0,.115.007.168.011a13.259,13.259,0,0,0-20.038,2.5c.312.01.6.016.854.016,1.387,0,3.535-.168,3.535-.168a.548.548,0,0,1,.084,1.09s-.719.084-1.518.126l4.829,14.365,2.9-8.7-2.066-5.661c-.714-.042-1.391-.126-1.391-.126a.548.548,0,0,1,.084-1.09s2.19.168,3.493.168c1.387,0,3.535-.168,3.535-.168a.548.548,0,0,1,.084,1.09s-.719.084-1.517.126l4.792,14.253,1.368-4.335a15.29,15.29,0,0,0,.963-4.365Zm-8.719,1.829-3.98,11.562a13.268,13.268,0,0,0,8.151-.211,1.214,1.214,0,0,1-.1-.183Zm11.4-7.522a10.2,10.2,0,0,1,.089,1.363,12.519,12.519,0,0,1-1.006,4.75l-4.05,11.712a13.264,13.264,0,0,0,4.97-17.824Z" transform="translate(-825.65 -237.716)" fill="#a3b3e5"/>
        </g>
      </g>
      <g id="Group_109" data-name="Group 109" transform="translate(-104.751 -39.879)">
        <g id="Group_18" data-name="Group 18" transform="translate(69.935 114.812)">
          <g id="Group_1" data-name="Group 1" transform="translate(275.415 18.838)">
            <path id="Path_19093" data-name="Path 19093" d="M2356.227,2098.8l-5.2-20.67,10.48-5.159a67.9,67.9,0,0,1,.568-9.158l-10.3-5.473,5.836-20.506,12.893.859a67.5,67.5,0,0,1,4.424-6.777l-6.777-10.838,15.309-14.837,11.448,7.662a68.686,68.686,0,0,1,6.536-3.417l-.472-13.493,20.673-5.2,6.181,12.559a67.555,67.555,0,0,1,7.233.187l6.37-11.993,20.5,5.838-.9,13.55a67.542,67.542,0,0,1,6.615,3.9l11.046-6.906,14.84,15.308-7.032,10.5a68.218,68.218,0,0,1,4.3,7.427l11.974-.421,5.2,20.672-10.2,5.022a67.944,67.944,0,0,1,.026,9.76l9.422,5.008-5.833,20.5-10.131-.673a67.665,67.665,0,0,1-5.443,9.387l5.033,8.049-15.306,14.838-7.716-5.167a68.6,68.6,0,0,1-10.1,5.621l.309,8.79-20.672,5.194-3.966-8.059a67.8,67.8,0,0,1-11.729-.39l-4.091,7.7-20.505-5.833.621-9.376a67.666,67.666,0,0,1-9.492-6.1l-7.893,4.933-14.837-15.3,5.788-8.647a68.877,68.877,0,0,1-4.639-9.23Zm63.7,8.2a35.811,35.811,0,1,0-24.643-44.244A35.809,35.809,0,0,0,2419.931,2106.995Z" transform="translate(-2351.025 -1991.791)" fill="#c5e1f9"/>
            <path id="Path_19094" data-name="Path 19094" d="M2453.243,2033.212a51.44,51.44,0,1,1-63.558,35.391A51.443,51.443,0,0,1,2453.243,2033.212ZM2428,2121.892a40.763,40.763,0,1,0-28.05-50.364A40.761,40.761,0,0,0,2428,2121.892Z" transform="translate(-2360.449 -2001.925)" fill="#eaf4fe" style="mix-blend-mode: multiply;isolation: isolate"/>
          </g>
          <path id="Path_19095" data-name="Path 19095" d="M2339.36,2039.245s1.941,5.079,29.833,12.729c15.583,4.279,25.22,7.3,30.005,2.009,8.2-9.073,11.031-47.288,11.031-47.288L2395.154,2002s-4.936,26.254-11.795,29.97c-1.6.868-18.632-1.776-35.216-8.316C2341.139,2020.887,2339.671,2037.316,2339.36,2039.245Z" transform="translate(-2072.612 -1975.577)" fill="#162447"/>
          <path id="Path_19096" data-name="Path 19096" d="M2273.014,2155.561s-31.007-5.086-24.18-50.344,1.641-50.227,12.407-63.2c23.812-28.7,44.514-20.656,44.514-20.656l26.57,9.313s14.982,14.987,14.618,25.39-5.248,46.5-3.428,54.4,9.28,34.317,9.28,34.317Z" transform="translate(-2049.1 -1980.283)" fill="#0c1e4a"/>
          <g id="Group_4" data-name="Group 4" transform="translate(193.17 108.449)">
            <g id="Group_3" data-name="Group 3">
              <g id="Group_2" data-name="Group 2">
                <rect id="Rectangle_1" data-name="Rectangle 1" width="248.932" height="197.567" fill="#eaf4fe"/>
                <rect id="Rectangle_2" data-name="Rectangle 2" width="248.932" height="23.542" fill="#9ac7f7"/>
                <path id="Path_19097" data-name="Path 19097" d="M2552.111,2126.609a4.712,4.712,0,1,0,4.714-4.711A4.714,4.714,0,0,0,2552.111,2126.609Z" transform="translate(-2320.445 -2114.831)" fill="#387bff"/>
                <path id="Path_19098" data-name="Path 19098" d="M2532.049,2126.609a4.7,4.7,0,1,0,4.71-4.711A4.71,4.71,0,0,0,2532.049,2126.609Z" transform="translate(-2315.291 -2114.831)" fill="#fbd260"/>
                <path id="Path_19099" data-name="Path 19099" d="M2511.981,2126.609a4.707,4.707,0,1,0,4.708-4.711A4.711,4.711,0,0,0,2511.981,2126.609Z" transform="translate(-2310.134 -2114.831)" fill="#eaf4fe"/>
              </g>
            </g>
          </g>
          <path id="Path_19100" data-name="Path 19100" d="M2422.344,2004.726l.776-11.412-6.108-.416-.777,11.418Z" transform="translate(-2092.364 -1973.237)" fill="#f7b68b"/>
          <g id="Group_5" data-name="Group 5" transform="translate(322.105)">
            <path id="Path_19101" data-name="Path 19101" d="M2419.256,1990.6s-5.355-4.627-5.393-6.613.276-9.222.276-9.222l.249-1.835s2.127-.7,1.86,4.16,1.123,2.651,1.123,2.651l1.881-4.192,2.7-4.938.921-2.363s.42-1.388.8-1.614c1.1-.646,1.228.494,1.228.494l-2.789,9.557,4.951-7.934s.8-.893,1.406-.63c.575.253.385.6.385.6l-3.457,10.482,3.019-3.767s.815-.859,1.411-.623c.656.254.841.3.841.3l-9.573,16.3Z" transform="translate(-2413.858 -1966.439)" fill="#f7b68b"/>
            <path id="Path_19102" data-name="Path 19102" d="M2427.294,1978.433l3.815-5.354a4.993,4.993,0,0,1,1.43-1.663.914.914,0,0,1,1.247.324l-4.94,8.709Z" transform="translate(-2417.311 -1967.685)" fill="#f7b68b"/>
          </g>
          <g id="Group_6" data-name="Group 6" transform="translate(359.351 150.847)">
            <path id="Line_1" data-name="Line 1" d="M40.258,2.035H0V-2.035H40.258Z" transform="translate(26.256 9.337)" fill="#0561fc"/>
            <path id="Line_2" data-name="Line 2" d="M24.505,2.035H0V-2.035H24.505Z" transform="translate(40.259 30.341)" fill="#9ac7f7"/>
            <path id="Line_3" data-name="Line 3" d="M14,2.035H0V-2.035H14Z" transform="translate(40.259 37.342)" fill="#9ac7f7"/>
            <path id="Line_4" data-name="Line 4" d="M24.505,2.035H0V-2.035H24.505Z" transform="translate(40.259 46.094)" fill="#9ac7f7"/>
            <path id="Line_5" data-name="Line 5" d="M14,2.035H0V-2.035H14Z" transform="translate(40.259 53.096)" fill="#9ac7f7"/>
            <path id="Line_6" data-name="Line 6" d="M24.505,2.035H0V-2.035H24.505Z" transform="translate(40.259 61.847)" fill="#9ac7f7"/>
            <path id="Line_805" data-name="Line 805" d="M24.505,2.035H0V-2.035H24.505Z" transform="translate(40.259 75.851)" fill="#9ac7f7"/>
            <path id="Line_807" data-name="Line 807" d="M24.505,2.035H0V-2.035H24.505Z" transform="translate(40.259 91.604)" fill="#9ac7f7"/>
            <path id="Line_7" data-name="Line 7" d="M14,2.035H0V-2.035H14Z" transform="translate(40.259 68.849)" fill="#9ac7f7"/>
            <path id="Line_804" data-name="Line 804" d="M14,2.035H0V-2.035H14Z" transform="translate(40.259 82.853)" fill="#9ac7f7"/>
            <path id="Line_806" data-name="Line 806" d="M14,2.035H0V-2.035H14Z" transform="translate(40.259 98.606)" fill="#9ac7f7"/>
            <path id="Line_8" data-name="Line 8" d="M33.257,2.035H0V-2.035H33.257Z" transform="translate(26.256 16.338)" fill="#0561fc"/>
            <rect id="Rectangle_3" data-name="Rectangle 3" width="7.001" height="7.001" transform="translate(28.006 30.341)" fill="url(#linear-gradient-4)"/>
            <rect id="Rectangle_4" data-name="Rectangle 4" width="7.001" height="7.002" transform="translate(28.006 46.094)" fill="url(#linear-gradient-4)"/>
            <rect id="Rectangle_5" data-name="Rectangle 5" width="7.001" height="7.002" transform="translate(28.006 61.847)" fill="url(#linear-gradient-4)"/>
            <rect id="Rectangle_6001" data-name="Rectangle 6001" width="7.001" height="7.002" transform="translate(28.006 75.851)" fill="url(#linear-gradient-4)"/>
            <rect id="Rectangle_6002" data-name="Rectangle 6002" width="7.001" height="7.002" transform="translate(28.006 91.604)" fill="url(#linear-gradient-4)"/>
            <rect id="Rectangle_6" data-name="Rectangle 6" width="23.339" height="23.339" transform="translate(0 0)" fill="#9fc400"/>
            <path id="Path_19103" data-name="Path 19103" d="M2494.652,2185.575l-5.814-5.815,2.878-2.878,2.937,2.936,9.063-9.062,2.878,2.879Z" transform="translate(-2485.025 -2166.359)" fill="#fff"/>
          </g>
          <g id="Group_14" data-name="Group 14" transform="translate(218.496 160.968)">
            <path id="Path_19145" data-name="Path 19145" d="M2276.779,2231.556l-2.356-9.371,4.75-2.339a30.877,30.877,0,0,1,.258-4.148l-4.667-2.48,2.645-9.291,5.842.389a31.016,31.016,0,0,1,2-3.07l-3.07-4.912,6.935-6.723,5.189,3.474a30.849,30.849,0,0,1,2.96-1.548l-.215-6.115,9.367-2.354,2.8,5.688a30.98,30.98,0,0,1,3.279.084l2.888-5.434,9.291,2.645-.408,6.141a30.6,30.6,0,0,1,3,1.766l5.008-3.13,6.723,6.936-3.186,4.76a30.948,30.948,0,0,1,1.948,3.364l5.427-.19,2.357,9.368-4.624,2.275a30.679,30.679,0,0,1,.012,4.422l4.271,2.268-2.645,9.292-4.588-.3a30.773,30.773,0,0,1-2.466,4.252l2.279,3.646-6.936,6.723-3.5-2.339a31.108,31.108,0,0,1-4.58,2.546l.14,3.981-9.368,2.36-1.8-3.656a30.658,30.658,0,0,1-5.311-.178l-1.855,3.493-9.29-2.643.283-4.253a30.654,30.654,0,0,1-4.3-2.762l-3.578,2.236-6.723-6.937,2.624-3.918a31.075,31.075,0,0,1-2.1-4.179Zm29.682.841a13.245,13.245,0,1,0-9.114-16.365A13.245,13.245,0,0,0,2306.461,2232.4Z" transform="translate(-2274.423 -2183.067)" fill="#9ac7f7"/>
            <path id="Path_19146" data-name="Path 19146" d="M2320.945,2205.535a20.477,20.477,0,1,1-25.3,14.088A20.477,20.477,0,0,1,2320.945,2205.535Zm-10.051,35.3a16.228,16.228,0,1,0-11.164-20.05A16.226,16.226,0,0,0,2310.894,2240.837Z" transform="translate(-2279.673 -2188.637)" fill="#c5e1f9"/>
          </g>
          <g id="Group_19391" data-name="Group 19391" transform="translate(287.785 142.629)" opacity="0.432">
            <path id="Path_19145-2" data-name="Path 19145" d="M2276.074,2217.041l-1.651-6.566,3.328-1.639a21.616,21.616,0,0,1,.181-2.906l-3.27-1.738,1.853-6.51,4.093.273a21.705,21.705,0,0,1,1.4-2.151l-2.151-3.442,4.859-4.711,3.636,2.434a21.6,21.6,0,0,1,2.074-1.085l-.15-4.284,6.563-1.649,1.962,3.985a21.736,21.736,0,0,1,2.3.059l2.024-3.807,6.51,1.854-.286,4.3a21.488,21.488,0,0,1,2.1,1.238l3.509-2.193,4.71,4.859-2.232,3.335a21.608,21.608,0,0,1,1.365,2.357l3.8-.134,1.651,6.564-3.24,1.594a21.508,21.508,0,0,1,.008,3.1l2.992,1.589-1.854,6.51-3.215-.212a21.52,21.52,0,0,1-1.728,2.979l1.6,2.554-4.86,4.711-2.45-1.639a21.79,21.79,0,0,1-3.208,1.784l.1,2.789-6.564,1.653-1.26-2.562a21.465,21.465,0,0,1-3.721-.125l-1.3,2.448-6.509-1.852.2-2.98a21.477,21.477,0,0,1-3.013-1.935l-2.507,1.567-4.711-4.86,1.838-2.745a21.815,21.815,0,0,1-1.472-2.928Zm20.8.59a9.28,9.28,0,1,0-6.386-11.466A9.28,9.28,0,0,0,2296.871,2217.631Z" transform="translate(-2274.423 -2183.067)" fill="#9ac7f7"/>
            <path id="Path_19146-2" data-name="Path 19146" d="M2313.135,2205.3a14.347,14.347,0,1,1-17.727,9.871A14.347,14.347,0,0,1,2313.135,2205.3Zm-7.042,24.735a11.371,11.371,0,1,0-7.822-14.048A11.368,11.368,0,0,0,2306.093,2230.034Z" transform="translate(-2284.218 -2193.46)" fill="#c5e1f9"/>
          </g>
          <g id="Group_15" data-name="Group 15" transform="translate(256.11 153.272)">
            <path id="Path_19147" data-name="Path 19147" d="M2442.427,2384.2c13.786-3.24,21.634-6.3,22.076-10.276,5.4-48.576,12.926-65.516,7.156-78.21-4.059-8.928-23.082-25.39-23.082-25.39l-19.606,2.043a59.84,59.84,0,0,0-21.555,32.577c-1.717,6.525.938,62.193,1.945,81.942C2409.361,2386.887,2428.641,2387.442,2442.427,2384.2Z" transform="translate(-2346.063 -2197.79)" fill="#0561fc"/>
            <path id="Path_19148" data-name="Path 19148" d="M2351.636,2295.393l-5.106-24-.938-4.414s-11.355,2.723-13.778,9.308,8.893,22.959,11.635,24.764S2351.636,2295.393,2351.636,2295.393Z" transform="translate(-2326.697 -2196.93)" fill="#f7b68b"/>
            <path id="Path_19149" data-name="Path 19149" d="M2333.4,2258.78l-8.351,11.393,4.5,7.85,14.4-13.151Z" transform="translate(-2325.044 -2194.824)" fill="#ec9568"/>
            <path id="Path_19150" data-name="Path 19150" d="M2417.529,2293.225s20.286-2.021,16.824,26.831c-.727,6.063-17.422,27.806-28.486,38.156s-19.75,18.172-28.211,11.384c-29.545-23.7-36.643-59.715-36.643-59.715l17.021-14.4s29.835,31.329,30.009,35.906S2407.314,2305.835,2417.529,2293.225Z" transform="translate(-2329.147 -2203.666)" fill="#0450cf"/>
            <path id="Path_19151" data-name="Path 19151" d="M2454.629,2194.922s-12.887-.026-16.462-5.241,8.024-2.613,2.424.443-16.875-4.29-13.205-9.926,8.859-7.74,13.362-3.864.4,5.491-1.113,1.957,6.493-11.123,11.623,1.132,1.725,12.865.3,4.924,3.92-12.415,6.787-2.977-3.147,13.448-4.194,9.247,11.648-11.757,11.891-3.894.168,17.244-5.76,16.845,9.656-19.594,13.615-2.446-6.494,11.121-6.587,7.332,19.63,4.964,3.382,9.054-9.74-2.057-10.736-5.977,12.743,7.373,4.119,14.779-16.043,5.224-13.73-3.1,10.858-3.122,7.388,3.648.57,11.318,2.192,12.2-11.4,4.975-13.246-2.014S2444.365,2196.472,2454.629,2194.922Z" transform="translate(-2351.155 -2172.709)" fill="#212a54"/>
            <path id="Path_19152" data-name="Path 19152" d="M2425.386,2204.472l.241-3.556,8.085-8.773s.277,3.171,11.87,5.773c17.284,3.879,1.558,7.039,0,14.641-.856,4.153-.233,7.242.885,8.655a60.039,60.039,0,0,1-14.54,14.869c-.02-.177-.03-.276-.03-.276l-7.79,2.277c-7.79,2.277-5.993-5.658-5.993-5.658l2.608-14.816-2.387-5.135Z" transform="translate(-2348.91 -2177.703)" fill="#f7b68b"/>
            <path id="Path_19153" data-name="Path 19153" d="M2425.386,2204.472l.241-3.556,8.085-8.773s.277,3.171,11.87,5.773c17.284,3.879,1.558,7.039,0,14.64s1.805,11.68,4.132,8.333,8.568-4.467,11.033-.518-6.463,9.654-8.4,10.294a4.46,4.46,0,0,1-3.223-.006s4.525,19.151,6.917,28.626c-2.055,1.1-16.7.5-22.157-2.6.05-7.881-1.987-20.884-1.987-20.884l-7.79,2.276c-7.79,2.278-5.993-5.657-5.993-5.657l2.608-14.816-2.387-5.135Z" transform="translate(-2348.91 -2177.703)" fill="#f7b68b"/>
          </g>
          <path id="Path_19154" data-name="Path 19154" d="M2294.342,2173.481l19.685,5.126,3.619.942s-2.709,9.188-8.262,10.913-18.67-8.186-20.057-10.5S2294.342,2173.481,2294.342,2173.481Z" transform="translate(-2059.706 -2019.635)" fill="#f7b68b"/>
          <path id="Path_19155" data-name="Path 19155" d="M2328.167,2190.519l-9.773,6.388-6.325-3.992,11.471-11.267Z" transform="translate(-2065.6 -2021.734)" fill="#ec9568"/>
          <path id="Path_19156" data-name="Path 19156" d="M2275.4,2073.837s2.308-27.7-14.618-29.237c-5.045-.458-13.85,11.541-20,24.62-5.32,11.306-24.21,41.994-18.922,49.189,18.462,25.121,48.02,32.351,48.02,32.351l12.607-13.368s-24.771-25.66-28.556-25.982S2270.725,2086.917,2275.4,2073.837Z" transform="translate(-2042.183 -1986.518)" fill="#162447"/>
          <path id="Path_19157" data-name="Path 19157" d="M2307.828,2008.365c-3.2,4.216-8.971,11.79-12.413,16.194,1.2,1.5,12.539,5.84,17.714,5.293a119.171,119.171,0,0,1,7.065-12.881Z" transform="translate(-2061.321 -1977.211)" fill="#f7b68b"/>
          <g id="Group_16" data-name="Group 16" transform="translate(235.024 2.02)">
            <path id="Path_19158" data-name="Path 19158" d="M2326.327,2014.4a4.107,4.107,0,0,1-4.418,3.778l-18.449-1.469a4.115,4.115,0,0,1-3.771-4.426l2.177-27.316a4.113,4.113,0,0,1,4.427-3.776l18.437,1.478a4.1,4.1,0,0,1,3.773,4.42Z" transform="translate(-2297.44 -1972.247)" fill="#f7b68b"/>
            <path id="Path_19159" data-name="Path 19159" d="M2336.942,1993.318s2.686-2.442,3.27-4.036a6.124,6.124,0,0,0-2.21-5.33c-1.956-1.354-3.834.725-3.834.725s3.125,2.081,3.241,2.777S2336.942,1993.318,2336.942,1993.318Z" transform="translate(-2306.302 -1972.841)" fill="#163f59"/>
            <path id="Path_19160" data-name="Path 19160" d="M2298.3,1994.019s-1.948-10.717-1.2-13.748,1.273-5.143,5.05-5.187c5.662-.059,5.639,1.138,8.507-.357s8.109-5.209,9.83-5.483c2.876-.463,7.206.829,6.956,6.138a5.9,5.9,0,0,0,2.127,5.214c-.26.457-1.319.823-3.177,1.574-5.333,2.155-8.446,2.423-12.287,1.083s-10.981-4.138-12.067-1.3-1.451,11.742-1.842,12.4S2298.948,1994.594,2298.3,1994.019Z" transform="translate(-2296.735 -1969.157)" fill="#5c3c00"/>
            <path id="Path_19161" data-name="Path 19161" d="M2303.392,2011.135a1.378,1.378,0,0,1-1.478,1.257l-3.983-.32a1.372,1.372,0,0,1-1.261-1.471l.579-7.283a1.382,1.382,0,0,1,1.476-1.264l3.984.323a1.36,1.36,0,0,1,1.253,1.47Z" transform="translate(-2296.667 -1977.609)" fill="#f7b68b"/>
            <path id="Path_19162" data-name="Path 19162" d="M2335.363,2013.671a1.363,1.363,0,0,1-1.47,1.263l-3.981-.315a1.374,1.374,0,0,1-1.261-1.481l.583-7.28a1.371,1.371,0,0,1,1.471-1.257l3.987.313a1.379,1.379,0,0,1,1.253,1.479Z" transform="translate(-2304.883 -1978.263)" fill="#f7b68b"/>
            <path id="Path_19163" data-name="Path 19163" d="M2300.491,2006.034s-.856,10.749-1.143,14.337c-.259,3.243.471,10.462,18.785,11.911,10.838.872,11.08-7.128,11.284-9.749.159-1.991-1.621-8.14-2.674-9.375-.037-.037-.356,4.44-.356,4.44a8.687,8.687,0,0,0-7.062-4.912c-8.313-.665-10.59,4.051-14.247,3.674C2302.26,2016.068,2300.512,2011.306,2300.491,2006.034Z" transform="translate(-2297.347 -1978.632)" fill="#5c3c00"/>
            <path id="Path_19164" data-name="Path 19164" d="M2320.455,2023.331l5.689.45a1.369,1.369,0,0,0,1.474-1.26l.063-.8-8.424-.664-.062.8A1.376,1.376,0,0,0,2320.455,2023.331Z" transform="translate(-2302.454 -1982.493)" fill="#f7b68b"/>
          </g>
          <g id="Group_17" data-name="Group 17" transform="translate(189.723 245.409)">
            <path id="Line_10" data-name="Line 10" d="M18.322,2.585H0V-2.585H18.322Z" transform="translate(52.504 10.888)" fill="#0561fc"/>
            <path id="Line_11" data-name="Line 11" d="M15.136,2.585H0V-2.585H15.136Z" transform="translate(52.504 18.572)" fill="#0561fc"/>
            <rect id="Rectangle_10" data-name="Rectangle 10" width="15.368" height="15.369" transform="translate(30.094 7.046)" fill="#4e99ff"/>
            <path id="Line_12" data-name="Line 12" d="M18.322,2.585H0V-2.585H18.322Z" transform="translate(52.504 37.783)" fill="#9ac7f7"/>
            <path id="Line_13" data-name="Line 13" d="M15.136,2.585H0V-2.585H15.136Z" transform="translate(52.504 45.466)" fill="#9ac7f7"/>
            <rect id="Rectangle_11" data-name="Rectangle 11" width="15.368" height="15.367" transform="translate(30.094 33.941)" fill="url(#linear-gradient-4)"/>
            <path id="Line_14" data-name="Line 14" d="M18.322,2.585H0V-2.585H18.322Z" transform="translate(52.504 64.676)" fill="#9ac7f7"/>
            <path id="Line_15" data-name="Line 15" d="M15.136,2.585H0V-2.585H15.136Z" transform="translate(52.504 72.361)" fill="#9ac7f7"/>
            <rect id="Rectangle_12" data-name="Rectangle 12" width="15.368" height="15.369" transform="translate(30.094 60.835)" fill="url(#linear-gradient-4)"/>
            <rect id="Rectangle_13" data-name="Rectangle 13" width="25.614" height="25.615" transform="translate(0 0)" fill="#9fc400"/>
            <path id="Path_19165" data-name="Path 19165" d="M2248.26,2321.37l-6.631-6.63,3.656-3.656,2.975,2.975,9.7-9.7,3.656,3.656Z" transform="translate(-2237.695 -2299.142)" fill="#fff"/>
          </g>
        </g>
      </g>
      <g id="Group_19380" data-name="Group 19380" transform="translate(-402.924 -1700.029)">
        <circle id="Ellipse_9373" data-name="Ellipse 9373" cx="55.193" cy="55.193" r="55.193" transform="translate(798.759 1908.896)" fill="#139be8"/>
      </g>
      <path id="Path_23678" data-name="Path 23678" d="M66.952,6.12,30.5,42.571,15.91,27.981,4.98,38.911,30.5,64.432,77.883,17.05Z" transform="translate(409.597 233.427)" fill="#fff"/>
      <g id="bubble" transform="translate(279.192 280.148)">
        <g id="Group_16975-2" data-name="Group 16975" transform="translate(58 -287)">
          <g transform="matrix(1, 0, 0, 1, -388.44, -42.5)" filter="url(#Path_23693-4)">
            <path id="Path_23693-8" data-name="Path 23693" d="M38.692,0A38.692,38.692,0,1,1,0,38.692,38.692,38.692,0,0,1,38.692,0Z" transform="translate(388.44 42.5)" fill="#fff"/>
          </g>
          <g id="Group_19156-3" data-name="Group 19156" transform="translate(24.127 21.258)">
            <path id="Path_32325" data-name="Path 32325" d="M-10.58-21.276H-8.5a1.043,1.043,0,0,0,1.04-1.04V-24.4a1.048,1.048,0,0,0-1.04-1.04H-10.58a1.05,1.05,0,0,0-1.04,1.04v2.081A1.046,1.046,0,0,0-10.58-21.276ZM-8.5-8.791H-10.58a1.05,1.05,0,0,0-1.04,1.04V-5.67a1.046,1.046,0,0,0,1.04,1.04H-8.5a1.043,1.043,0,0,0,1.04-1.04V-7.75A1.048,1.048,0,0,0-8.5-8.791Zm3.336-9.578a1.04,1.04,0,0,0-1.471,0L-9.54-15.462l-.825-.826a1.04,1.04,0,0,0-1.471,0,1.04,1.04,0,0,0,0,1.471l1.561,1.561a1.048,1.048,0,0,0,.735.3,1.037,1.037,0,0,0,.735-.3L-5.163-16.9A1.034,1.034,0,0,0-5.163-18.369Z" transform="translate(15.782 31.68)" fill="#43ab3f"/>
            <path id="Path_32324" data-name="Path 32324" d="M8.783-32.375H-12.026a4.161,4.161,0,0,0-4.162,4.162v24.97A4.161,4.161,0,0,0-12.026.918H8.783a4.161,4.161,0,0,0,4.162-4.162v-24.97A4.163,4.163,0,0,0,8.783-32.375Zm-20.808,7.283a1.05,1.05,0,0,1,1.04-1.04H-8.9a1.048,1.048,0,0,1,1.04,1.04v2.081a1.043,1.043,0,0,1-1.04,1.04h-2.081a1.046,1.046,0,0,1-1.04-1.04ZM-7.864-6.364A1.043,1.043,0,0,1-8.9-5.324h-2.081a1.046,1.046,0,0,1-1.04-1.04V-8.445a1.05,1.05,0,0,1,1.04-1.04H-8.9a1.048,1.048,0,0,1,1.04,1.04Zm2.3-11.23L-9.21-13.953a1.039,1.039,0,0,1-.735.306,1.043,1.043,0,0,1-.735-.306l-1.561-1.561a1.04,1.04,0,0,1,0-1.471,1.04,1.04,0,0,1,1.471,0l.825.827,2.906-2.906a1.04,1.04,0,0,1,1.471,0,1.035,1.035,0,0,1,0,1.469ZM7.742-6.364h-10.4A1.043,1.043,0,0,1-3.7-7.4a1.042,1.042,0,0,1,1.04-1.04h10.4A1.04,1.04,0,0,1,8.783-7.4,1.042,1.042,0,0,1,7.742-6.364Zm0-8.323h-10.4a1.043,1.043,0,0,1-1.04-1.04,1.042,1.042,0,0,1,1.04-1.04h10.4a1.043,1.043,0,0,1,1.04,1.04A1.043,1.043,0,0,1,7.742-14.688Zm0-8.323h-10.4a1.043,1.043,0,0,1-1.04-1.04,1.042,1.042,0,0,1,1.04-1.04h10.4a1.043,1.043,0,0,1,1.04,1.04A1.043,1.043,0,0,1,7.742-23.011Z" transform="translate(16.188 32.375)" fill="#8fe28c"/>
          </g>
        </g>
      </g>
      <g id="icon-2" data-name="icon" transform="translate(0 -10)">
        <g transform="matrix(1, 0, 0, 1, -51.25, -39.35)" filter="url(#Ellipse_9517)">
          <circle id="Ellipse_9517-2" data-name="Ellipse 9517" cx="52.5" cy="52.5" r="52.5" transform="translate(105.97 403.61)" fill="#fff"/>
        </g>
        <g id="Group_19156-4" data-name="Group 19156" transform="translate(82.619 391.271)">
          <path id="Path_32642" data-name="Path 32642" d="M-12.549-20.366a3.025,3.025,0,0,1,0-4.277l12.1-12.1a3.007,3.007,0,0,1,2.136-.884,3.01,3.01,0,0,1,2.138.886l12.1,12.1a3.025,3.025,0,0,1,0,4.277,3.024,3.024,0,0,1-4.277,0L4.71-27.294v22.94A3.025,3.025,0,0,1,1.685-1.329,3.025,3.025,0,0,1-1.339-4.354v-22.94l-6.938,6.928A3.018,3.018,0,0,1-12.549-20.366Z" transform="translate(22.922 37.911)" fill="#139be8"/>
          <path id="Path_32641" data-name="Path 32641" d="M23.87-8.062H8.747A6.049,6.049,0,0,1,2.7-2.013,6.049,6.049,0,0,1-3.352-8.062H-18.475A3.025,3.025,0,0,0-21.5-5.038V4.036a3.025,3.025,0,0,0,3.025,3.025H23.87a3.025,3.025,0,0,0,3.025-3.025V-5.038A3.021,3.021,0,0,0,23.87-8.062Zm-4.537,9.83A2.275,2.275,0,0,1,17.064-.5a2.275,2.275,0,0,1,2.268-2.268A2.275,2.275,0,0,1,21.6-.5,2.275,2.275,0,0,1,19.333,1.768Z" transform="translate(21.91 41.62)" fill="#5b6f91"/>
        </g>
      </g>
    </g>
  </g>
</svg>
